# Blender 4.4.1
# www.blender.org
mtllib player.mtl
o 球
v 0.000000 0.363345 -0.283125
v 0.000000 0.245151 -0.401319
v 0.000000 0.090723 -0.465286
v 0.000000 0.007147 -0.473517
v 0.000000 -0.076429 -0.465286
v 0.000000 -0.230857 -0.401319
v 0.016305 0.441047 -0.127091
v 0.031983 0.409929 -0.205911
v 0.046432 0.363345 -0.278552
v 0.059097 0.310068 -0.342222
v 0.069491 0.245151 -0.394475
v 0.077214 0.171087 -0.433302
v 0.081970 0.090723 -0.457212
v 0.083576 0.007147 -0.465286
v 0.081970 -0.076429 -0.457212
v 0.077214 -0.156793 -0.433302
v 0.069491 -0.230857 -0.394475
v 0.059097 -0.313665 -0.342222
v 0.046432 -0.370394 -0.278552
v 0.031983 -0.411025 -0.205911
v 0.016305 -0.413018 -0.127091
v 0.031983 0.441047 -0.122335
v 0.062737 0.409929 -0.196582
v 0.091080 0.363345 -0.265008
v 0.115923 0.310068 -0.324984
v 0.136311 0.245151 -0.374205
v 0.151461 0.171087 -0.410780
v 0.160790 0.090723 -0.433302
v 0.163940 0.007147 -0.440907
v 0.160790 -0.076429 -0.433302
v 0.151461 -0.156793 -0.410780
v 0.136311 -0.230857 -0.374205
v 0.115923 -0.313665 -0.324984
v 0.091080 -0.370394 -0.265008
v 0.062737 -0.411025 -0.196582
v 0.031983 -0.413018 -0.122335
v 0.046432 0.441047 -0.114612
v 0.091080 0.409929 -0.181432
v 0.132228 0.363345 -0.243014
v 0.168294 0.310068 -0.296991
v 0.197893 0.245151 -0.341289
v 0.219887 0.171087 -0.374205
v 0.233431 0.090723 -0.394475
v 0.238004 0.007147 -0.401319
v 0.233431 -0.076429 -0.394475
v 0.219887 -0.156793 -0.374205
v 0.197893 -0.230857 -0.341289
v 0.168294 -0.313665 -0.296991
v 0.132228 -0.370394 -0.243014
v 0.091080 -0.411025 -0.181432
v 0.046432 -0.413018 -0.114612
v 0.059097 0.441047 -0.104218
v 0.115923 0.409929 -0.161044
v 0.168294 0.363345 -0.213415
v 0.214198 0.310068 -0.259319
v 0.251870 0.245151 -0.296991
v 0.279863 0.171087 -0.324984
v 0.297101 0.090723 -0.342222
v 0.302922 0.007147 -0.348043
v 0.297101 -0.076429 -0.342222
v 0.279863 -0.156793 -0.324984
v 0.251870 -0.230857 -0.296991
v 0.214198 -0.313665 -0.259319
v 0.168294 -0.370394 -0.213415
v 0.115923 -0.411025 -0.161044
v 0.059097 -0.413018 -0.104218
v 0.069491 0.441047 -0.091553
v 0.136311 0.409929 -0.136201
v 0.197893 0.363345 -0.177349
v 0.251870 0.310068 -0.213415
v 0.296168 0.245151 -0.243014
v 0.329084 0.171087 -0.265008
v 0.349354 0.090723 -0.278552
v 0.356198 0.007147 -0.283125
v 0.349354 -0.076429 -0.278552
v 0.329084 -0.156793 -0.265008
v 0.296168 -0.230857 -0.243014
v 0.251870 -0.313665 -0.213415
v 0.197893 -0.370394 -0.177349
v 0.136311 -0.411025 -0.136201
v 0.069491 -0.413018 -0.091553
v 0.000000 0.483222 -0.078596
v 0.077214 0.441047 -0.077104
v 0.151461 0.409929 -0.107858
v 0.219887 0.363345 -0.136201
v 0.279863 0.310068 -0.161044
v 0.329084 0.245151 -0.181432
v 0.365659 0.171087 -0.196582
v 0.388181 0.090723 -0.205911
v 0.395786 0.007147 -0.209061
v 0.388181 -0.076429 -0.205911
v 0.365659 -0.156793 -0.196582
v 0.329084 -0.230857 -0.181432
v 0.279863 -0.313665 -0.161044
v 0.219887 -0.370394 -0.136201
v 0.151461 -0.411025 -0.107858
v 0.077214 -0.413018 -0.077104
v 0.081970 0.441047 -0.061426
v 0.160790 0.409929 -0.077104
v 0.233431 0.363345 -0.091553
v 0.297101 0.310068 -0.104218
v 0.349354 0.245151 -0.114612
v 0.388181 0.171087 -0.122335
v 0.412091 0.090723 -0.127091
v 0.420164 0.007147 -0.128697
v 0.412091 -0.076429 -0.127091
v 0.388181 -0.156793 -0.122335
v 0.349354 -0.230857 -0.114612
v 0.297101 -0.313665 -0.104218
v 0.233431 -0.370394 -0.091553
v 0.160790 -0.411025 -0.077104
v 0.081970 -0.413018 -0.061426
v 0.083576 0.441047 -0.045121
v 0.163940 0.409929 -0.045121
v 0.238004 0.363345 -0.045121
v 0.302922 0.310068 -0.045121
v 0.356198 0.245151 -0.045121
v 0.395786 0.171087 -0.045121
v 0.420164 0.090723 -0.045121
v 0.428396 0.007147 -0.045121
v 0.420164 -0.076429 -0.045121
v 0.395786 -0.156793 -0.045121
v 0.356198 -0.230857 -0.045121
v 0.302922 -0.313665 -0.045121
v 0.238004 -0.370394 -0.045121
v 0.163940 -0.411025 -0.045121
v 0.083576 -0.413018 -0.045121
v 0.081970 0.441047 -0.028816
v 0.160790 0.409929 -0.013138
v 0.233431 0.363345 0.001311
v 0.297101 0.310068 0.013976
v 0.349354 0.245151 0.024370
v 0.388181 0.171087 0.032093
v 0.412091 0.090723 0.036849
v 0.420164 0.007147 0.038455
v 0.412091 -0.076429 0.036849
v 0.388181 -0.156793 0.032093
v 0.349354 -0.230857 0.024370
v 0.297101 -0.313665 0.013976
v 0.233431 -0.370394 0.001311
v 0.160790 -0.411025 -0.013138
v 0.081970 -0.413018 -0.028816
v 0.077214 0.441047 -0.013138
v 0.151461 0.409929 0.017616
v 0.219887 0.363345 0.045959
v 0.279863 0.310068 0.070802
v 0.329084 0.245151 0.091190
v 0.365659 0.171087 0.106340
v 0.388181 0.090723 0.115669
v 0.395786 0.007147 0.118819
v 0.388181 -0.076429 0.115669
v 0.365659 -0.156793 0.106340
v 0.329084 -0.230857 0.091190
v 0.279863 -0.313665 0.070802
v 0.219887 -0.370394 0.045959
v 0.151461 -0.411025 0.017616
v 0.077214 -0.413018 -0.013138
v 0.069491 0.441047 0.001311
v 0.136311 0.409929 0.045959
v 0.197893 0.363345 0.087107
v 0.251870 0.310068 0.123173
v 0.296168 0.245151 0.152772
v 0.329084 0.171087 0.174766
v 0.349354 0.090723 0.188310
v 0.356198 0.007147 0.192883
v 0.349354 -0.076429 0.188310
v 0.329084 -0.156793 0.174766
v 0.296168 -0.230857 0.152772
v 0.251870 -0.313665 0.123173
v 0.197893 -0.370394 0.087107
v 0.136311 -0.411025 0.045959
v 0.069491 -0.413018 0.001311
v 0.059097 0.441047 0.013976
v 0.115923 0.409929 0.070802
v 0.168294 0.363345 0.123173
v 0.214198 0.310068 0.169077
v 0.251870 0.245151 0.206749
v 0.279863 0.171087 0.234742
v 0.297101 0.090723 0.251980
v 0.302921 0.007147 0.257801
v 0.297101 -0.076429 0.251980
v 0.279863 -0.156793 0.234742
v 0.251870 -0.230857 0.206749
v 0.214198 -0.313665 0.169077
v 0.168294 -0.370394 0.123173
v 0.115923 -0.411025 0.070802
v 0.059097 -0.413018 0.013976
v 0.046432 0.441047 0.024370
v 0.091080 0.409929 0.091190
v 0.132228 0.363345 0.152772
v 0.168294 0.310068 0.206749
v 0.197893 0.245151 0.251047
v -0.237082 0.181518 0.347977
v 0.233431 0.090723 0.304233
v 0.238004 0.007147 0.311077
v 0.233431 -0.076429 0.304233
v 0.219887 -0.156793 0.283963
v 0.197893 -0.230857 0.251047
v 0.168294 -0.313665 0.206749
v 0.132228 -0.370394 0.152772
v 0.091080 -0.411025 0.091190
v 0.046432 -0.413018 0.024370
v 0.031983 0.441047 0.032093
v 0.062737 0.409929 0.106340
v 0.091080 0.363345 0.174766
v 0.115923 0.310068 0.234742
v 0.136311 0.245151 0.283963
v 0.151461 0.171087 0.320538
v 0.160790 0.090723 0.343060
v 0.163940 0.007147 0.350665
v 0.160790 -0.076429 0.343060
v 0.151461 -0.156793 0.320538
v 0.136311 -0.230857 0.283963
v 0.115923 -0.313665 0.234742
v 0.091080 -0.370394 0.174766
v 0.062737 -0.411025 0.106340
v 0.031983 -0.413018 0.032093
v 0.016305 0.441047 0.036849
v 0.031983 0.409929 0.115669
v 0.046432 0.363345 0.188310
v 0.059097 0.310068 0.251980
v 0.069491 0.245151 0.304233
v 0.077214 0.171087 0.343060
v 0.081970 0.090723 0.366970
v 0.083576 0.007147 0.375043
v 0.081970 -0.076429 0.366970
v 0.077214 -0.156793 0.343060
v 0.069491 -0.230857 0.304233
v 0.059097 -0.313665 0.251980
v 0.046432 -0.370394 0.188310
v 0.031983 -0.411025 0.115669
v 0.016305 -0.413018 0.036849
v -0.000000 0.441047 0.038455
v -0.000000 0.409929 0.118819
v -0.000000 0.363345 0.192883
v -0.000000 0.310068 0.257801
v -0.000000 0.245151 0.311077
v 0.000000 0.171087 0.350665
v -0.000000 0.090723 0.375043
v 0.000000 0.050017 0.524465
v -0.000000 -0.076429 0.375043
v 0.000000 -0.156793 0.350665
v -0.000000 -0.230857 0.311077
v -0.000000 -0.313665 0.257801
v 0.000000 -0.370394 0.192883
v -0.000000 -0.411025 0.118819
v -0.000000 -0.413018 0.038455
v -0.016305 0.441047 0.036849
v -0.031983 0.409929 0.115669
v -0.046432 0.363345 0.188310
v -0.059097 0.310068 0.251980
v -0.069491 0.245151 0.304233
v -0.077214 0.171087 0.343060
v -0.081970 0.090723 0.366970
v -0.083576 0.007147 0.375043
v -0.081970 -0.076429 0.366970
v -0.077214 -0.156793 0.343060
v -0.069491 -0.230857 0.304233
v -0.059097 -0.313665 0.251980
v -0.046432 -0.370394 0.188310
v -0.031983 -0.411025 0.115669
v -0.016305 -0.413018 0.036849
v -0.031983 0.441047 0.032093
v -0.062737 0.409929 0.106340
v -0.091080 0.363345 0.174766
v -0.115923 0.310068 0.234742
v -0.136311 0.245151 0.283963
v -0.151461 0.171087 0.320538
v -0.160790 0.090723 0.343060
v -0.163940 0.007147 0.350665
v -0.160790 -0.076429 0.343060
v -0.151461 -0.156793 0.320538
v -0.136311 -0.230857 0.283963
v -0.115923 -0.313665 0.234742
v -0.091080 -0.370394 0.174766
v -0.062737 -0.411025 0.106340
v -0.031983 -0.413018 0.032093
v -0.046432 0.441047 0.024370
v -0.091080 0.409929 0.091190
v -0.132228 0.363345 0.152772
v -0.168294 0.310068 0.206749
v -0.197893 0.245151 0.251047
v 0.237082 0.181518 0.347977
v -0.233431 0.090723 0.304233
v -0.238004 0.007147 0.311077
v -0.233431 -0.076429 0.304233
v -0.219887 -0.156793 0.283963
v -0.197893 -0.230857 0.251047
v -0.168294 -0.313665 0.206749
v -0.132228 -0.370394 0.152772
v -0.091080 -0.411025 0.091190
v -0.046432 -0.413018 0.024370
v -0.059097 0.441047 0.013976
v -0.115923 0.409929 0.070802
v -0.168294 0.363345 0.123173
v -0.214198 0.310068 0.169077
v -0.251870 0.245151 0.206749
v -0.279863 0.171087 0.234742
v -0.297101 0.090723 0.251980
v -0.302922 0.007147 0.257800
v -0.297101 -0.076429 0.251980
v -0.279863 -0.156793 0.234742
v -0.251870 -0.230857 0.206749
v -0.214198 -0.313665 0.169077
v -0.168294 -0.370394 0.123173
v -0.115923 -0.411025 0.070802
v -0.059097 -0.413018 0.013976
v 0.000000 -0.421249 -0.045121
v -0.069491 0.441047 0.001311
v -0.136311 0.409929 0.045959
v -0.197893 0.363345 0.087107
v -0.251870 0.310068 0.123173
v -0.296168 0.245151 0.152772
v -0.329084 0.171087 0.174766
v -0.349354 0.090723 0.188310
v -0.356198 0.007147 0.192883
v -0.349354 -0.076429 0.188310
v -0.329084 -0.156793 0.174766
v -0.296168 -0.230857 0.152772
v -0.251870 -0.313665 0.123173
v -0.197893 -0.370394 0.087107
v -0.136311 -0.411025 0.045959
v -0.069491 -0.413018 0.001311
v -0.077214 0.441047 -0.013138
v -0.151461 0.409929 0.017616
v -0.219887 0.363345 0.045959
v -0.279863 0.310068 0.070802
v -0.329084 0.245151 0.091190
v -0.365659 0.171087 0.106340
v -0.388181 0.090723 0.115669
v -0.395786 0.007147 0.118819
v -0.388181 -0.076429 0.115669
v -0.365659 -0.156793 0.106340
v -0.329084 -0.230857 0.091190
v -0.279863 -0.313665 0.070802
v -0.219887 -0.370394 0.045959
v -0.151461 -0.411025 0.017616
v -0.077214 -0.413018 -0.013138
v -0.081970 0.441047 -0.028816
v -0.160790 0.409929 -0.013138
v -0.233431 0.363345 0.001311
v -0.297101 0.310068 0.013976
v -0.349354 0.245151 0.024370
v -0.388181 0.171087 0.032093
v -0.412091 0.090723 0.036849
v -0.420164 0.007147 0.038455
v -0.412091 -0.076429 0.036849
v -0.388181 -0.156793 0.032093
v -0.349354 -0.230857 0.024370
v -0.297101 -0.313665 0.013976
v -0.233431 -0.370394 0.001311
v -0.160790 -0.411025 -0.013138
v -0.081970 -0.413018 -0.028816
v -0.083576 0.441047 -0.045121
v -0.163940 0.409929 -0.045121
v -0.238004 0.363345 -0.045121
v -0.302922 0.310068 -0.045121
v -0.356198 0.245151 -0.045121
v -0.395786 0.171087 -0.045121
v -0.420164 0.090723 -0.045121
v -0.428396 0.007147 -0.045121
v -0.420164 -0.076429 -0.045121
v -0.395786 -0.156793 -0.045121
v -0.356198 -0.230857 -0.045121
v -0.302922 -0.313665 -0.045121
v -0.238004 -0.370394 -0.045121
v -0.163940 -0.411025 -0.045121
v -0.083576 -0.413018 -0.045121
v -0.081970 0.441047 -0.061426
v -0.160790 0.409929 -0.077104
v -0.233431 0.363345 -0.091553
v -0.297101 0.310068 -0.104218
v -0.349354 0.245151 -0.114612
v -0.388181 0.171087 -0.122335
v -0.412091 0.090723 -0.127091
v -0.420164 0.007147 -0.128697
v -0.412091 -0.076429 -0.127091
v -0.388181 -0.156793 -0.122335
v -0.349354 -0.230857 -0.114612
v -0.297101 -0.313665 -0.104218
v -0.233431 -0.370394 -0.091553
v -0.160790 -0.411025 -0.077104
v -0.081970 -0.413018 -0.061426
v -0.077214 0.441047 -0.077104
v -0.151461 0.409929 -0.107858
v -0.219887 0.363345 -0.136201
v -0.279863 0.310068 -0.161044
v -0.329084 0.245151 -0.181432
v -0.365659 0.171087 -0.196582
v -0.388181 0.090723 -0.205911
v -0.395786 0.007147 -0.209061
v -0.388181 -0.076429 -0.205911
v -0.365659 -0.156793 -0.196582
v -0.329084 -0.230857 -0.181432
v -0.279863 -0.313665 -0.161044
v -0.219887 -0.370394 -0.136201
v -0.151461 -0.411025 -0.107858
v -0.077214 -0.413018 -0.077104
v -0.069491 0.441047 -0.091553
v -0.136311 0.409929 -0.136201
v -0.197893 0.363345 -0.177349
v -0.251870 0.310068 -0.213415
v -0.296168 0.245151 -0.243014
v -0.329084 0.171087 -0.265008
v -0.349354 0.090723 -0.278552
v -0.356198 0.007147 -0.283125
v -0.349354 -0.076429 -0.278552
v -0.329084 -0.156793 -0.265008
v -0.296168 -0.230857 -0.243014
v -0.251870 -0.313665 -0.213415
v -0.197893 -0.370394 -0.177349
v -0.136311 -0.411025 -0.136201
v -0.069491 -0.413018 -0.091553
v -0.059097 0.441047 -0.104218
v -0.115923 0.409929 -0.161044
v -0.168294 0.363345 -0.213415
v -0.214198 0.310068 -0.259319
v -0.251870 0.245151 -0.296991
v -0.279863 0.171087 -0.324984
v -0.297101 0.090723 -0.342222
v -0.302921 0.007147 -0.348043
v -0.297101 -0.076429 -0.342222
v -0.279863 -0.156793 -0.324984
v -0.251870 -0.230857 -0.296991
v -0.214198 -0.313665 -0.259319
v -0.168294 -0.370394 -0.213415
v -0.115923 -0.411025 -0.161044
v -0.059097 -0.413018 -0.104218
v -0.046432 0.441047 -0.114612
v -0.091080 0.409929 -0.181432
v -0.132228 0.363345 -0.243014
v -0.168294 0.310068 -0.296991
v -0.197893 0.245151 -0.341289
v -0.219887 0.171087 -0.374205
v -0.233431 0.090723 -0.394475
v -0.238004 0.007147 -0.401319
v -0.233431 -0.076429 -0.394475
v -0.219887 -0.156793 -0.374205
v -0.197893 -0.230857 -0.341289
v -0.168294 -0.313665 -0.296991
v -0.132228 -0.370394 -0.243014
v -0.091080 -0.411025 -0.181432
v -0.046432 -0.413018 -0.114612
v -0.031983 0.441047 -0.122335
v -0.062737 0.409929 -0.196582
v -0.091080 0.363345 -0.265008
v -0.115923 0.310068 -0.324984
v -0.136311 0.245151 -0.374205
v -0.151461 0.171087 -0.410780
v -0.160790 0.090723 -0.433302
v -0.163940 0.007147 -0.440907
v -0.160790 -0.076429 -0.433302
v -0.151461 -0.156793 -0.410780
v -0.136311 -0.230857 -0.374205
v -0.115923 -0.313665 -0.324984
v -0.091080 -0.370394 -0.265008
v -0.062737 -0.411025 -0.196582
v -0.031983 -0.413018 -0.122335
v -0.016305 0.441047 -0.127091
v -0.031983 0.409929 -0.205911
v -0.046432 0.363345 -0.278552
v -0.059097 0.310068 -0.342222
v -0.069491 0.245151 -0.394475
v -0.077214 0.171087 -0.433302
v -0.081970 0.090723 -0.457212
v -0.083576 0.007147 -0.465285
v -0.081970 -0.076429 -0.457212
v -0.077214 -0.156793 -0.433302
v -0.069491 -0.230857 -0.394475
v -0.059097 -0.313665 -0.342222
v -0.046432 -0.370394 -0.278552
v -0.031983 -0.411025 -0.205911
v -0.016305 -0.413018 -0.127091
v 0.000000 0.441047 -0.128697
v 0.000000 0.409929 -0.209061
v 0.000000 0.310068 -0.348043
v 0.000000 0.171087 -0.440907
v 0.000000 -0.156793 -0.440907
v 0.000000 -0.313665 -0.348043
v 0.000000 -0.370394 -0.283125
v 0.000000 -0.411025 -0.209061
v 0.000000 -0.413018 -0.128697
vn 0.0024 -0.9997 -0.0248
vn 0.0975 0.0975 -0.9904
vn 0.0633 0.7635 -0.6427
vn 0.0097 -0.9951 -0.0980
vn 0.0975 -0.0976 -0.9904
vn 0.0355 0.9319 -0.3609
vn 0.0938 -0.2890 -0.9527
vn 0.0524 0.8453 -0.5317
vn 0.0865 -0.4696 -0.8786
vn 0.0624 0.7715 -0.6332
vn 0.0825 -0.5392 -0.8381
vn 0.0759 0.6326 -0.7708
vn 0.0647 -0.7514 -0.6566
vn 0.0865 0.4696 -0.8786
vn 0.0473 -0.8758 -0.4804
vn 0.0938 0.2890 -0.9527
vn 0.2563 0.4696 -0.8448
vn 0.1401 -0.8758 -0.4620
vn 0.2779 0.2890 -0.9161
vn 0.0072 -0.9997 -0.0238
vn 0.2889 0.0975 -0.9524
vn 0.1847 0.7715 -0.6089
vn 0.0286 -0.9951 -0.0942
vn 0.2889 -0.0976 -0.9524
vn 0.1053 0.9319 -0.3470
vn 0.2779 -0.2890 -0.9161
vn 0.1551 0.8453 -0.5113
vn 0.2563 -0.4696 -0.8448
vn 0.1847 0.7715 -0.6088
vn 0.2445 -0.5392 -0.8059
vn 0.2248 0.6326 -0.7412
vn 0.1915 -0.7514 -0.6314
vn 0.4513 -0.2890 -0.8443
vn 0.2518 0.8453 -0.4712
vn 0.4162 -0.4696 -0.7786
vn 0.2999 0.7715 -0.5611
vn 0.3970 -0.5392 -0.7427
vn 0.3651 0.6326 -0.6831
vn 0.3110 -0.7514 -0.5819
vn 0.4162 0.4696 -0.7786
vn 0.2276 -0.8758 -0.4258
vn 0.4513 0.2890 -0.8443
vn 0.0117 -0.9997 -0.0220
vn 0.4691 0.0975 -0.8777
vn 0.2913 0.7862 -0.5450
vn 0.0464 -0.9951 -0.0869
vn 0.4691 -0.0976 -0.8777
vn 0.1709 0.9319 -0.3198
vn 0.3063 -0.8758 -0.3732
vn 0.6073 0.2890 -0.7400
vn 0.0158 -0.9997 -0.0193
vn 0.6314 0.0975 -0.7693
vn 0.3761 0.8053 -0.4582
vn 0.0625 -0.9951 -0.0761
vn 0.6314 -0.0975 -0.7693
vn 0.2300 0.9319 -0.2803
vn 0.6073 -0.2890 -0.7400
vn 0.3389 0.8453 -0.4130
vn 0.5601 -0.4696 -0.6825
vn 0.4036 0.7715 -0.4918
vn 0.5343 -0.5392 -0.6510
vn 0.4913 0.6326 -0.5987
vn 0.4186 -0.7514 -0.5100
vn 0.5601 0.4696 -0.6825
vn 0.6825 -0.4696 -0.5601
vn 0.4918 0.7715 -0.4036
vn 0.6510 -0.5392 -0.5343
vn 0.5987 0.6326 -0.4913
vn 0.5100 -0.7514 -0.4186
vn 0.6825 0.4696 -0.5601
vn 0.3732 -0.8758 -0.3063
vn 0.7400 0.2890 -0.6073
vn 0.0193 -0.9997 -0.0158
vn 0.7693 0.0975 -0.6314
vn 0.4351 0.8266 -0.3571
vn 0.0761 -0.9951 -0.0625
vn 0.7693 -0.0975 -0.6314
vn 0.2803 0.9319 -0.2300
vn 0.7400 -0.2890 -0.6073
vn 0.4130 0.8453 -0.3389
vn 0.0220 -0.9997 -0.0117
vn 0.8777 0.0975 -0.4691
vn 0.4679 0.8477 -0.2501
vn 0.0869 -0.9951 -0.0464
vn 0.8777 -0.0975 -0.4691
vn 0.3198 0.9319 -0.1709
vn 0.8443 -0.2890 -0.4513
vn 0.4712 0.8453 -0.2518
vn 0.7786 -0.4696 -0.4162
vn 0.5611 0.7715 -0.2999
vn 0.7427 -0.5392 -0.3970
vn 0.6831 0.6326 -0.3651
vn 0.5819 -0.7514 -0.3110
vn 0.7786 0.4696 -0.4162
vn 0.4258 -0.8758 -0.2276
vn 0.8443 0.2890 -0.4513
vn 0.6088 0.7715 -0.1847
vn 0.8059 -0.5392 -0.2445
vn 0.7412 0.6326 -0.2248
vn 0.6314 -0.7514 -0.1915
vn 0.8448 0.4696 -0.2563
vn 0.4620 -0.8758 -0.1401
vn 0.9161 0.2890 -0.2779
vn 0.0238 -0.9997 -0.0072
vn 0.9524 0.0975 -0.2889
vn 0.4765 0.8672 -0.1445
vn 0.0942 -0.9951 -0.0286
vn 0.9524 -0.0975 -0.2889
vn 0.3470 0.9319 -0.1053
vn 0.9161 -0.2890 -0.2779
vn 0.5113 0.8453 -0.1551
vn 0.8448 -0.4696 -0.2563
vn 0.9904 0.0975 -0.0975
vn 0.4646 0.8843 -0.0458
vn 0.0980 -0.9951 -0.0097
vn 0.9904 -0.0975 -0.0976
vn 0.3609 0.9319 -0.0355
vn 0.9527 -0.2890 -0.0938
vn 0.5317 0.8453 -0.0524
vn 0.8786 -0.4696 -0.0865
vn 0.6332 0.7715 -0.0624
vn 0.8381 -0.5392 -0.0825
vn 0.7708 0.6326 -0.0759
vn 0.6566 -0.7514 -0.0647
vn 0.8786 0.4696 -0.0865
vn 0.4804 -0.8758 -0.0473
vn 0.9527 0.2890 -0.0938
vn 0.0248 -0.9997 -0.0024
vn 0.8381 -0.5392 0.0825
vn 0.7708 0.6326 0.0759
vn 0.6566 -0.7514 0.0647
vn 0.8786 0.4696 0.0865
vn 0.4804 -0.8758 0.0473
vn 0.9527 0.2890 0.0938
vn 0.0248 -0.9997 0.0024
vn 0.9904 0.0975 0.0975
vn 0.4363 0.8988 0.0430
vn 0.0980 -0.9951 0.0097
vn 0.9904 -0.0975 0.0976
vn 0.3609 0.9319 0.0355
vn 0.9527 -0.2890 0.0938
vn 0.5317 0.8453 0.0524
vn 0.8786 -0.4696 0.0865
vn 0.6332 0.7715 0.0624
vn 0.3956 0.9105 0.1200
vn 0.0942 -0.9951 0.0286
vn 0.9524 -0.0975 0.2889
vn 0.3470 0.9319 0.1053
vn 0.9161 -0.2890 0.2779
vn 0.5113 0.8453 0.1551
vn 0.8448 -0.4696 0.2563
vn 0.6088 0.7715 0.1847
vn 0.8059 -0.5392 0.2445
vn 0.7412 0.6326 0.2248
vn 0.6314 -0.7514 0.1915
vn 0.8448 0.4696 0.2563
vn 0.4620 -0.8758 0.1401
vn 0.9161 0.2890 0.2779
vn 0.0238 -0.9997 0.0072
vn 0.9524 0.0975 0.2889
vn 0.6831 0.6326 0.3651
vn 0.5819 -0.7514 0.3110
vn 0.7786 0.4696 0.4162
vn 0.4258 -0.8758 0.2276
vn 0.8443 0.2890 0.4513
vn 0.0220 -0.9997 0.0117
vn 0.8777 0.0975 0.4691
vn 0.3458 0.9199 0.1848
vn 0.0869 -0.9951 0.0464
vn 0.8777 -0.0975 0.4691
vn 0.3198 0.9319 0.1709
vn 0.8443 -0.2890 0.4513
vn 0.4712 0.8453 0.2518
vn 0.7786 -0.4696 0.4162
vn 0.5611 0.7715 0.2999
vn 0.7427 -0.5392 0.3970
vn 0.7693 -0.0975 0.6314
vn 0.2803 0.9319 0.2300
vn 0.7400 -0.2890 0.6073
vn 0.4130 0.8453 0.3389
vn 0.6825 -0.4696 0.5601
vn 0.4918 0.7715 0.4036
vn 0.6510 -0.5392 0.5343
vn 0.5987 0.6326 0.4913
vn 0.5100 -0.7514 0.4186
vn 0.6825 0.4696 0.5601
vn 0.3732 -0.8758 0.3063
vn 0.7400 0.2890 0.6073
vn 0.0193 -0.9997 0.0158
vn 0.7693 0.0975 0.6314
vn 0.2895 0.9272 0.2376
vn 0.0761 -0.9951 0.0625
vn 0.4186 -0.7514 0.5100
vn -0.3411 0.8432 0.4156
vn 0.3063 -0.8758 0.3732
vn -0.3242 0.3647 0.8729
vn 0.0158 -0.9997 0.0193
vn 0.6314 0.0975 0.7693
vn 0.2288 0.9327 0.2788
vn 0.0625 -0.9951 0.0761
vn 0.6314 -0.0975 0.7693
vn 0.2300 0.9319 0.2803
vn 0.6073 -0.2890 0.7400
vn 0.3389 0.8453 0.4130
vn 0.5601 -0.4696 0.6825
vn 0.4036 0.7715 0.4918
vn 0.5343 -0.5392 0.6510
vn 0.4913 0.6326 0.5987
vn 0.4513 -0.2890 0.8443
vn 0.2518 0.8453 0.4712
vn 0.4162 -0.4696 0.7786
vn 0.2999 0.7715 0.5611
vn 0.3970 -0.5392 0.7427
vn 0.3651 0.6326 0.6831
vn 0.3110 -0.7514 0.5819
vn -0.4309 -0.4057 0.8061
vn 0.2276 -0.8758 0.4258
vn 0.3242 0.3647 0.8729
vn 0.0117 -0.9997 0.0220
vn 0.4691 0.0975 0.8777
vn 0.1652 0.9366 0.3091
vn 0.0464 -0.9951 0.0869
vn 0.4691 -0.0975 0.8777
vn 0.1709 0.9319 0.3198
vn 0.1401 -0.8758 0.4620
vn 0.2779 0.2890 0.9161
vn 0.0072 -0.9997 0.0238
vn 0.2889 0.0975 0.9524
vn 0.0998 0.9391 0.3290
vn 0.0286 -0.9951 0.0942
vn 0.2889 -0.0975 0.9524
vn 0.1053 0.9319 0.3470
vn 0.2779 -0.2890 0.9161
vn 0.1551 0.8453 0.5113
vn 0.2563 -0.4696 0.8448
vn 0.1847 0.7715 0.6088
vn 0.2445 -0.5392 0.8059
vn 0.2248 0.6326 0.7412
vn 0.1915 -0.7514 0.6314
vn 0.2563 0.4696 0.8448
vn 0.0524 0.8453 0.5317
vn 0.0865 -0.4696 0.8786
vn 0.0624 0.7715 0.6332
vn 0.0825 -0.5392 0.8381
vn 0.0759 0.6326 0.7708
vn 0.0647 -0.7514 0.6566
vn 0.0865 0.4696 0.8786
vn 0.0473 -0.8758 0.4804
vn 0.0938 0.2890 0.9527
vn 0.0024 -0.9997 0.0248
vn 0.6943 0.6943 0.1892
vn 0.0334 0.9403 0.3388
vn 0.0097 -0.9951 0.0980
vn 0.0975 -0.0975 0.9904
vn 0.0355 0.9319 0.3609
vn 0.0938 -0.2890 0.9527
vn -0.0938 0.2890 0.9527
vn -0.0024 -0.9997 0.0248
vn -0.6943 0.6943 0.1892
vn -0.0334 0.9403 0.3388
vn -0.0097 -0.9951 0.0980
vn -0.0975 -0.0975 0.9904
vn -0.0355 0.9319 0.3609
vn -0.0938 -0.2890 0.9527
vn -0.0524 0.8453 0.5317
vn -0.0865 -0.4696 0.8786
vn -0.0624 0.7715 0.6332
vn -0.0825 -0.5392 0.8381
vn -0.0759 0.6326 0.7708
vn -0.0647 -0.7514 0.6566
vn -0.0865 0.4696 0.8786
vn -0.0473 -0.8758 0.4804
vn -0.2563 -0.4696 0.8448
vn -0.1847 0.7715 0.6088
vn -0.2445 -0.5392 0.8059
vn -0.2248 0.6326 0.7412
vn -0.1915 -0.7514 0.6314
vn -0.2563 0.4696 0.8448
vn -0.1401 -0.8758 0.4620
vn -0.2779 0.2890 0.9161
vn -0.0072 -0.9997 0.0238
vn -0.2889 0.0975 0.9524
vn -0.0998 0.9391 0.3290
vn -0.0286 -0.9951 0.0942
vn -0.2889 -0.0975 0.9524
vn -0.1053 0.9319 0.3470
vn -0.2779 -0.2890 0.9161
vn -0.1551 0.8453 0.5113
vn -0.0117 -0.9997 0.0220
vn -0.4691 0.0975 0.8777
vn -0.1652 0.9366 0.3091
vn -0.0464 -0.9951 0.0869
vn -0.4691 -0.0975 0.8777
vn -0.1709 0.9319 0.3198
vn -0.4513 -0.2890 0.8443
vn -0.2518 0.8453 0.4712
vn -0.4162 -0.4696 0.7786
vn -0.2999 0.7715 0.5611
vn -0.3970 -0.5392 0.7427
vn -0.3651 0.6326 0.6831
vn -0.3110 -0.7514 0.5819
vn 0.2461 0.8529 0.4604
vn -0.2276 -0.8758 0.4258
vn -0.8565 0.4310 0.2839
vn -0.4036 0.7715 0.4918
vn -0.5343 -0.5392 0.6510
vn -0.4913 0.6326 0.5987
vn -0.4186 -0.7514 0.5100
vn 0.5894 -0.3697 0.7182
vn -0.3063 -0.8758 0.3732
vn 0.8565 0.4310 0.2839
vn -0.0158 -0.9997 0.0193
vn -0.6314 0.0975 0.7693
vn -0.2288 0.9327 0.2788
vn -0.0625 -0.9951 0.0761
vn -0.6314 -0.0975 0.7693
vn -0.2300 0.9319 0.2803
vn -0.6073 -0.2890 0.7400
vn -0.3389 0.8453 0.4130
vn -0.5601 -0.4696 0.6825
vn -0.7693 0.0975 0.6314
vn -0.2895 0.9272 0.2376
vn -0.0761 -0.9951 0.0625
vn -0.7693 -0.0975 0.6314
vn -0.2803 0.9319 0.2300
vn -0.7400 -0.2890 0.6073
vn -0.4130 0.8453 0.3389
vn -0.6825 -0.4696 0.5601
vn -0.4918 0.7715 0.4036
vn -0.6510 -0.5392 0.5343
vn -0.5987 0.6326 0.4913
vn -0.5100 -0.7514 0.4186
vn -0.6825 0.4696 0.5601
vn -0.3732 -0.8758 0.3063
vn -0.7400 0.2890 0.6073
vn -0.0193 -0.9997 0.0158
vn -0.7427 -0.5392 0.3970
vn -0.6831 0.6326 0.3651
vn -0.5819 -0.7514 0.3110
vn -0.7786 0.4696 0.4162
vn -0.4258 -0.8758 0.2276
vn -0.8443 0.2890 0.4513
vn -0.0220 -0.9997 0.0117
vn -0.8777 0.0975 0.4691
vn -0.3458 0.9199 0.1848
vn -0.0869 -0.9951 0.0464
vn -0.8777 -0.0975 0.4691
vn -0.3198 0.9319 0.1709
vn -0.8443 -0.2890 0.4513
vn -0.4712 0.8453 0.2518
vn -0.7786 -0.4696 0.4162
vn -0.5611 0.7715 0.2999
vn -0.0942 -0.9951 0.0286
vn -0.9524 -0.0975 0.2889
vn -0.3470 0.9319 0.1053
vn -0.9161 -0.2890 0.2779
vn -0.5113 0.8453 0.1551
vn -0.8448 -0.4696 0.2563
vn -0.6088 0.7715 0.1847
vn -0.8059 -0.5392 0.2445
vn -0.7412 0.6326 0.2248
vn -0.6314 -0.7514 0.1915
vn -0.8448 0.4696 0.2563
vn -0.4620 -0.8758 0.1401
vn -0.9161 0.2890 0.2779
vn -0.0238 -0.9997 0.0072
vn -0.9524 0.0975 0.2889
vn -0.3956 0.9105 0.1200
vn -0.6566 -0.7514 0.0647
vn -0.8786 0.4696 0.0865
vn -0.4804 -0.8758 0.0473
vn -0.9527 0.2890 0.0938
vn -0.0248 -0.9997 0.0024
vn -0.9904 0.0975 0.0975
vn -0.4363 0.8988 0.0430
vn -0.0980 -0.9951 0.0097
vn -0.9904 -0.0975 0.0975
vn -0.3609 0.9319 0.0355
vn -0.9527 -0.2890 0.0938
vn -0.5317 0.8453 0.0524
vn -0.8786 -0.4696 0.0865
vn -0.6332 0.7715 0.0624
vn -0.8381 -0.5392 0.0825
vn -0.7708 0.6326 0.0759
vn -0.3609 0.9319 -0.0355
vn -0.9527 -0.2890 -0.0938
vn -0.5317 0.8453 -0.0524
vn -0.8786 -0.4696 -0.0865
vn -0.6332 0.7715 -0.0624
vn -0.8381 -0.5392 -0.0825
vn -0.7708 0.6326 -0.0759
vn -0.6566 -0.7514 -0.0647
vn -0.8786 0.4696 -0.0865
vn -0.4804 -0.8758 -0.0473
vn -0.9527 0.2890 -0.0938
vn -0.0248 -0.9997 -0.0024
vn -0.9904 0.0975 -0.0976
vn -0.4646 0.8843 -0.0458
vn -0.0980 -0.9951 -0.0097
vn -0.9904 -0.0975 -0.0976
vn -0.8448 0.4696 -0.2563
vn -0.4620 -0.8758 -0.1401
vn -0.9161 0.2890 -0.2779
vn -0.0238 -0.9997 -0.0072
vn -0.9524 0.0975 -0.2889
vn -0.4765 0.8672 -0.1445
vn -0.0942 -0.9951 -0.0286
vn -0.9524 -0.0975 -0.2889
vn -0.3470 0.9319 -0.1053
vn -0.9161 -0.2890 -0.2779
vn -0.5113 0.8453 -0.1551
vn -0.8448 -0.4696 -0.2563
vn -0.6088 0.7715 -0.1847
vn -0.8059 -0.5392 -0.2445
vn -0.7412 0.6326 -0.2248
vn -0.6314 -0.7514 -0.1915
vn -0.8443 -0.2890 -0.4513
vn -0.4712 0.8453 -0.2518
vn -0.7786 -0.4696 -0.4162
vn -0.5611 0.7715 -0.2999
vn -0.7427 -0.5392 -0.3970
vn -0.6831 0.6326 -0.3651
vn -0.5819 -0.7514 -0.3110
vn -0.7786 0.4696 -0.4162
vn -0.4258 -0.8758 -0.2276
vn -0.8443 0.2890 -0.4513
vn -0.0220 -0.9997 -0.0117
vn -0.8777 0.0975 -0.4691
vn -0.4679 0.8477 -0.2501
vn -0.0869 -0.9951 -0.0464
vn -0.8777 -0.0975 -0.4691
vn -0.3198 0.9319 -0.1709
vn -0.3732 -0.8758 -0.3063
vn -0.7400 0.2890 -0.6073
vn -0.0193 -0.9997 -0.0158
vn -0.7693 0.0975 -0.6314
vn -0.4351 0.8266 -0.3571
vn -0.0761 -0.9951 -0.0625
vn -0.7693 -0.0975 -0.6314
vn -0.2803 0.9319 -0.2300
vn -0.7400 -0.2890 -0.6073
vn -0.4130 0.8453 -0.3389
vn -0.6825 -0.4696 -0.5601
vn -0.4918 0.7715 -0.4036
vn -0.6510 -0.5392 -0.5343
vn -0.5987 0.6326 -0.4913
vn -0.5100 -0.7514 -0.4186
vn -0.6825 0.4696 -0.5601
vn -0.3389 0.8453 -0.4130
vn -0.5601 -0.4696 -0.6825
vn -0.4036 0.7715 -0.4918
vn -0.5343 -0.5392 -0.6510
vn -0.4913 0.6326 -0.5987
vn -0.4186 -0.7514 -0.5100
vn -0.5601 0.4696 -0.6825
vn -0.3063 -0.8758 -0.3732
vn -0.6073 0.2890 -0.7400
vn -0.0158 -0.9997 -0.0193
vn -0.6314 0.0975 -0.7693
vn -0.3761 0.8053 -0.4582
vn -0.0625 -0.9951 -0.0761
vn -0.6314 -0.0975 -0.7693
vn -0.2300 0.9319 -0.2803
vn -0.6073 -0.2890 -0.7400
vn -0.4513 0.2890 -0.8443
vn -0.0117 -0.9997 -0.0220
vn -0.4691 0.0975 -0.8777
vn -0.2913 0.7862 -0.5450
vn -0.0464 -0.9951 -0.0869
vn -0.4691 -0.0975 -0.8777
vn -0.1709 0.9319 -0.3198
vn -0.4513 -0.2890 -0.8443
vn -0.2518 0.8453 -0.4712
vn -0.4162 -0.4696 -0.7786
vn -0.2999 0.7715 -0.5611
vn -0.3970 -0.5392 -0.7427
vn -0.3651 0.6326 -0.6831
vn -0.3110 -0.7514 -0.5819
vn -0.4162 0.4696 -0.7786
vn -0.2276 -0.8758 -0.4258
vn -0.2563 -0.4696 -0.8448
vn -0.1847 0.7715 -0.6088
vn -0.2445 -0.5392 -0.8059
vn -0.2248 0.6326 -0.7412
vn -0.1915 -0.7514 -0.6314
vn -0.2563 0.4696 -0.8448
vn -0.1401 -0.8758 -0.4620
vn -0.2779 0.2890 -0.9161
vn -0.0072 -0.9997 -0.0238
vn -0.2889 0.0975 -0.9524
vn -0.1847 0.7715 -0.6089
vn -0.0286 -0.9951 -0.0942
vn -0.2889 -0.0975 -0.9524
vn -0.1053 0.9319 -0.3470
vn -0.2779 -0.2890 -0.9161
vn -0.1551 0.8453 -0.5113
vn -0.0024 -0.9997 -0.0248
vn -0.0976 0.0976 -0.9904
vn -0.0633 0.7635 -0.6427
vn -0.0097 -0.9951 -0.0980
vn -0.0976 -0.0975 -0.9904
vn -0.0355 0.9319 -0.3609
vn -0.0938 -0.2890 -0.9527
vn -0.0524 0.8453 -0.5317
vn -0.0865 -0.4696 -0.8786
vn -0.0624 0.7715 -0.6332
vn -0.0825 -0.5392 -0.8381
vn -0.0759 0.6326 -0.7708
vn -0.0647 -0.7514 -0.6566
vn -0.0865 0.4696 -0.8786
vn -0.0473 -0.8758 -0.4804
vn -0.0938 0.2890 -0.9527
vn 0.0975 0.0976 -0.9904
vn 0.2889 0.0976 -0.9524
vn 0.2889 -0.0975 -0.9524
vn 0.4691 0.0976 -0.8777
vn 0.4691 -0.0975 -0.8777
vn 0.9904 0.0975 -0.0976
vn 0.9904 -0.0975 -0.0975
vn 0.9904 0.0975 0.0976
vn 0.9904 -0.0975 0.0975
vn -0.2461 0.8529 0.4604
vn -0.3219 0.2207 0.9207
vn -0.5894 -0.3697 0.7182
vn 0.3219 0.2207 0.9207
vn 0.0975 0.0975 0.9904
vn 0.6068 -0.6068 0.5135
vn -0.0975 0.0975 0.9904
vn -0.6068 -0.6068 0.5135
vn 0.3411 0.8432 0.4156
vn -0.9101 0.2638 0.3195
vn 0.4309 -0.4057 0.8061
vn 0.9101 0.2638 0.3195
vn -0.0976 0.0975 -0.9904
vn -0.0976 -0.0976 -0.9904
vt 0.497963 0.606088
vt 0.536654 0.567913
vt 0.542112 0.578379
vt 0.299197 0.655783
vt 0.323461 0.632599
vt 0.323835 0.656180
vt 0.100555 0.581942
vt 0.059315 0.557298
vt 0.105929 0.571192
vt 0.592773 0.545303
vt 0.346401 0.631652
vt 0.348350 0.655068
vt 0.149480 0.611292
vt 0.156608 0.596328
vt 0.369853 0.629156
vt 0.373383 0.651970
vt 0.187646 0.629670
vt 0.194392 0.611426
vt 0.394471 0.624844
vt 0.399419 0.646564
vt 0.219107 0.641114
vt 0.224888 0.620661
vt 0.425577 0.617050
vt 0.432047 0.636863
vt 0.252006 0.626613
vt 0.247589 0.648609
vt 0.455921 0.606841
vt 0.463059 0.624274
vt 0.273964 0.653322
vt 0.276937 0.630276
vt 0.490716 0.591731
vt 0.300553 0.632103
vt 0.279129 0.608615
vt 0.484830 0.577370
vt 0.301442 0.610081
vt 0.531208 0.557612
vt 0.323122 0.610445
vt 0.062361 0.550674
vt 0.111245 0.560546
vt 0.586480 0.534983
vt 0.344833 0.609649
vt 0.162836 0.581500
vt 0.367045 0.607660
vt 0.200062 0.593755
vt 0.390727 0.604333
vt 0.229522 0.601104
vt 0.420325 0.597942
vt 0.255437 0.605760
vt 0.449774 0.589723
vt 0.364948 0.587208
vt 0.204343 0.576424
vt 0.387458 0.584478
vt 0.233444 0.582117
vt 0.416328 0.579487
vt 0.258083 0.585841
vt 0.444966 0.572965
vt 0.280857 0.588016
vt 0.479703 0.563120
vt 0.302121 0.589202
vt 0.526592 0.547101
vt 0.322880 0.589335
vt 0.064090 0.546903
vt 0.115724 0.549723
vt 0.582522 0.528807
vt 0.343608 0.588740
vt 0.167451 0.566687
vt 0.441534 0.556510
vt 0.475487 0.548865
vt 0.282139 0.568263
vt 0.302699 0.569052
vt 0.523753 0.536012
vt 0.322667 0.569105
vt 0.065131 0.542369
vt 0.119429 0.538752
vt 0.581741 0.527075
vt 0.342618 0.568634
vt 0.171513 0.552062
vt 0.363125 0.567429
vt 0.207783 0.559555
vt 0.385101 0.565371
vt 0.236094 0.563793
vt 0.413027 0.561500
vt 0.260207 0.566597
vt 0.361854 0.548303
vt 0.383205 0.546748
vt 0.238101 0.545910
vt 0.410664 0.543883
vt 0.261721 0.547917
vt 0.438546 0.540246
vt 0.283068 0.549081
vt 0.472747 0.534558
vt 0.303074 0.549581
vt 0.520626 0.525072
vt 0.322472 0.549555
vt 0.065818 0.537140
vt 0.122383 0.527727
vt 0.577998 0.514586
vt 0.341864 0.549192
vt 0.174151 0.537508
vt 0.210484 0.542912
vt 0.470418 0.520366
vt 0.518240 0.514104
vt 0.303278 0.530589
vt 0.322285 0.530486
vt 0.065777 0.531229
vt 0.124630 0.516665
vt 0.575387 0.507420
vt 0.341292 0.530213
vt 0.176315 0.523097
vt 0.360910 0.529587
vt 0.212223 0.526515
vt 0.381867 0.528508
vt 0.239470 0.528357
vt 0.408975 0.526540
vt 0.262720 0.529639
vt 0.436591 0.524168
vt 0.283664 0.530342
vt 0.240233 0.511047
vt 0.407925 0.509385
vt 0.263252 0.511635
vt 0.435239 0.508149
vt 0.283950 0.511903
vt 0.469310 0.506143
vt 0.303327 0.511909
vt 0.517656 0.502923
vt 0.322100 0.511731
vt 0.065592 0.530207
vt 0.125181 0.505400
vt 0.574983 0.505534
vt 0.340880 0.511534
vt 0.177719 0.508707
vt 0.360275 0.511148
vt 0.213236 0.510291
vt 0.381013 0.510508
vt 0.303222 0.493390
vt 0.321911 0.493132
vt 0.061803 0.517719
vt 0.126074 0.494155
vt 0.575325 0.497896
vt 0.517778 0.491631
vt 0.340611 0.493004
vt 0.178254 0.494323
vt 0.359933 0.492846
vt 0.213520 0.494184
vt 0.380605 0.492628
vt 0.240408 0.493873
vt 0.407519 0.492306
vt 0.263339 0.493779
vt 0.434540 0.492095
vt 0.283937 0.493621
vt 0.469038 0.491909
vt 0.407585 0.475223
vt 0.240003 0.476735
vt 0.262992 0.475949
vt 0.435019 0.476004
vt 0.283625 0.475363
vt 0.469158 0.477626
vt 0.302962 0.474887
vt 0.518577 0.480264
vt 0.321712 0.474542
vt 0.061280 0.516218
vt 0.125254 0.482905
vt 0.576162 0.490027
vt 0.340479 0.474476
vt 0.177654 0.479971
vt 0.359872 0.474538
vt 0.213239 0.478078
vt 0.380618 0.474731
vt 0.055730 0.502193
vt 0.124791 0.471631
vt 0.577693 0.482140
vt 0.520066 0.468822
vt 0.340478 0.455804
vt 0.176651 0.465618
vt 0.360092 0.456085
vt 0.212114 0.461915
vt 0.381062 0.456690
vt 0.238963 0.459527
vt 0.408285 0.457981
vt 0.262217 0.458030
vt 0.435962 0.459868
vt 0.282998 0.456990
vt 0.470561 0.463271
vt 0.302538 0.456254
vt 0.321496 0.455813
vt 0.237529 0.442162
vt 0.260779 0.439910
vt 0.437795 0.443551
vt 0.282011 0.438353
vt 0.472433 0.448881
vt 0.301938 0.437347
vt 0.521067 0.457333
vt 0.321258 0.436795
vt 0.053202 0.493792
vt 0.123624 0.460496
vt 0.579177 0.468181
vt 0.340609 0.436837
vt 0.174841 0.451262
vt 0.360603 0.437345
vt 0.210287 0.445687
vt 0.381956 0.438382
vt 0.409619 0.440510
vt 0.340877 0.417412
vt 0.172187 0.436891
vt 0.361425 0.418165
vt 0.207645 0.429341
vt 0.383336 0.419670
vt 0.235159 0.424551
vt 0.411585 0.422738
vt 0.258938 0.421508
vt 0.440410 0.427074
vt 0.280667 0.419294
vt 0.475110 0.434401
vt 0.301170 0.418038
vt 0.523885 0.446195
vt 0.320983 0.417320
vt 0.050316 0.485443
vt 0.121716 0.449530
vt 0.579296 0.466141
vt 0.443565 0.410304
vt 0.686774 0.240004
vt 0.729787 0.277473
vt 0.715372 0.306650
vt 0.478735 0.419786
vt 0.663944 0.351408
vt 0.701423 0.370772
vt 0.639354 0.381859
vt 0.527466 0.435130
vt 0.300052 0.398051
vt 0.320646 0.397187
vt 0.049066 0.483514
vt 0.118135 0.438950
vt 0.582123 0.458932
vt 0.341292 0.397344
vt 0.168264 0.422599
vt 0.362593 0.398382
vt 0.204273 0.412817
vt 0.385260 0.400421
vt 0.232385 0.406618
vt 0.414492 0.404500
vt 0.256968 0.402627
vt 0.364157 0.377808
vt 0.199704 0.395961
vt 0.387783 0.380483
vt 0.228391 0.388117
vt 0.418008 0.385825
vt 0.253629 0.382915
vt 0.448088 0.393231
vt 0.640820 0.249876
vt 0.639354 0.211516
vt 0.483378 0.405031
vt 0.724252 0.220640
vt 0.748842 0.251091
vt 0.531863 0.424195
vt 0.298709 0.377215
vt 0.320265 0.376196
vt 0.041212 0.469601
vt 0.114636 0.428256
vt 0.585446 0.452090
vt 0.341883 0.376434
vt 0.163686 0.408206
vt 0.453586 0.375840
vt 0.489603 0.390292
vt 0.273815 0.358150
vt 0.297044 0.355415
vt 0.537137 0.413456
vt 0.319813 0.354120
vt 0.037331 0.461753
vt 0.110291 0.417879
vt 0.589286 0.445732
vt 0.342679 0.354442
vt 0.157999 0.393816
vt 0.366196 0.356215
vt 0.193988 0.378835
vt 0.391041 0.359644
vt 0.223381 0.369092
vt 0.422491 0.366486
vt 0.249600 0.362550
vt 0.276584 0.379312
vt 0.150679 0.379655
vt 0.187068 0.361454
vt 0.368813 0.333328
vt 0.395193 0.337669
vt 0.217179 0.349418
vt 0.428417 0.346200
vt 0.244583 0.341228
vt 0.460303 0.357880
vt 0.270245 0.335728
vt 0.496566 0.375379
vt 0.294946 0.332275
vt 0.543317 0.403028
vt 0.676440 0.041801
vt 0.727148 0.020280
vt 0.742507 0.090804
vt 0.033374 0.454478
vt 0.105057 0.407917
vt 0.593434 0.439766
vt 0.651278 0.090804
vt 0.639354 0.054315
vt 0.265726 0.311756
vt 0.292308 0.307508
vt 0.550486 0.392970
vt 0.727148 0.161329
vt 0.676440 0.139808
vt 0.029245 0.447897
vt 0.098894 0.398462
vt 0.598208 0.434568
vt 0.639354 0.127294
vt 0.141981 0.365693
vt 0.343720 0.331061
vt 0.372146 0.308821
vt 0.178550 0.343707
vt 0.400432 0.314325
vt 0.209481 0.328917
vt 0.435423 0.325168
vt 0.238282 0.318697
vt 0.468829 0.339516
vt 0.505415 0.360603
vt 0.376406 0.282207
vt 0.407097 0.289217
vt 0.199908 0.307428
vt 0.444533 0.302821
vt 0.230269 0.294731
vt 0.478925 0.320641
vt 0.260028 0.285690
vt 0.515817 0.345987
vt 0.289018 0.280567
vt 0.558681 0.383446
vt 0.318608 0.305349
vt 0.317746 0.277920
vt 0.027579 0.446513
vt 0.091249 0.390054
vt 0.603168 0.430018
vt 0.346777 0.278548
vt 0.345053 0.305990
vt 0.132059 0.351943
vt 0.167958 0.325540
vt 0.567333 0.374043
vt 0.284563 0.250711
vt 0.316628 0.247407
vt 0.018969 0.438467
vt 0.083023 0.381851
vt 0.610980 0.422880
vt 0.348999 0.248224
vt 0.120110 0.338630
vt 0.381888 0.252977
vt 0.155094 0.307108
vt 0.415576 0.261977
vt 0.188061 0.284841
vt 0.455923 0.279157
vt 0.221075 0.268604
vt 0.491395 0.301283
vt 0.658410 0.408241
vt 0.528173 0.331689
vt 0.677736 0.295903
vt 0.173093 0.261131
vt 0.469778 0.254348
vt 0.207894 0.240550
vt 0.507175 0.281538
vt 0.747377 0.380643
vt 0.748842 0.419004
vt 0.542662 0.318003
vt 0.710461 0.426671
vt 0.672825 0.437418
vt 0.577114 0.365672
vt 0.278869 0.217157
vt 0.315234 0.213017
vt 0.014869 0.434972
vt 0.073763 0.374632
vt 0.614923 0.419751
vt 0.351948 0.214152
vt 0.106049 0.326077
vt 0.389028 0.220430
vt 0.139402 0.288604
vt 0.426461 0.232181
vt 0.271545 0.179104
vt 0.313468 0.173635
vt 0.011150 0.432850
vt 0.063477 0.368634
vt 0.618702 0.417870
vt 0.588040 0.358591
vt 0.355921 0.175178
vt 0.089633 0.314716
vt 0.398495 0.183578
vt 0.120219 0.270326
vt 0.440699 0.199095
vt 0.154160 0.236301
vt 0.487933 0.227673
vt 0.191346 0.209913
vt 0.526022 0.261775
vt 0.230552 0.191215
vt 0.242674 0.226235
vt 0.559605 0.305391
vt 0.511145 0.199421
vt 0.130062 0.210480
vt 0.169781 0.176167
vt 0.549332 0.242446
vt 0.214133 0.151189
vt 0.579239 0.294421
vt 0.261746 0.134855
vt 0.600136 0.353561
vt 0.311162 0.127551
vt 0.008058 0.432073
vt 0.052237 0.364134
vt 0.619749 0.417785
vt 0.361352 0.129644
vt 0.070657 0.305159
vt 0.411277 0.141098
vt 0.096727 0.252785
vt 0.459543 0.162023
vt 0.623056 0.418239
vt 0.613130 0.350341
vt 0.368875 0.075118
vt 0.049007 0.298221
vt 0.429017 0.091002
vt 0.068531 0.237313
vt 0.484901 0.120176
vt 0.099052 0.184154
vt 0.541393 0.169619
vt 0.141048 0.138923
vt 0.578095 0.224539
vt 0.191548 0.104504
vt 0.602088 0.285904
vt 0.248397 0.082123
vt 0.308087 0.072446
vt 0.007369 0.432422
vt 0.040287 0.361640
vt 0.614179 0.209401
vt 0.159076 0.047933
vt 0.627901 0.281157
vt 0.230157 0.017422
vt 0.626760 0.349343
vt 0.303967 0.005727
vt 0.005727 0.433322
vt 0.027853 0.361118
vt 0.625040 0.419374
vt 0.379219 0.007895
vt 0.024768 0.294779
vt 0.454918 0.029549
vt 0.034515 0.225566
vt 0.519502 0.073443
vt 0.058140 0.158069
vt 0.581931 0.138299
vt 0.102171 0.098501
vt 0.017378 0.707010
vt 0.030724 0.633249
vt 0.043443 0.701661
vt 0.409862 0.979160
vt 0.449465 0.889743
vt 0.480126 0.945950
vt 0.033763 0.781435
vt 0.069034 0.765533
vt 0.542330 0.899837
vt 0.502515 0.855561
vt 0.105699 0.818822
vt 0.066734 0.847880
vt 0.552565 0.802333
vt 0.593414 0.827666
vt 0.113718 0.907867
vt 0.151748 0.862183
vt 0.583601 0.747350
vt 0.617943 0.759154
vt 0.206018 0.894308
vt 0.177509 0.951581
vt 0.627901 0.690553
vt 0.602666 0.687296
vt 0.248943 0.982150
vt 0.265469 0.913917
vt 0.610015 0.625746
vt 0.623187 0.626077
vt 0.329653 0.994273
vt 0.328270 0.919916
vt 0.017218 0.634466
vt 0.044721 0.556914
vt 0.618291 0.558719
vt 0.390802 0.911580
vt 0.226204 0.845252
vt 0.554875 0.732003
vt 0.580520 0.680421
vt 0.276058 0.858667
vt 0.597545 0.623332
vt 0.327204 0.862374
vt 0.044222 0.557176
vt 0.043742 0.629678
vt 0.616093 0.560923
vt 0.378162 0.856776
vt 0.066514 0.692863
vt 0.427428 0.841507
vt 0.097864 0.747060
vt 0.473686 0.816384
vt 0.135784 0.789412
vt 0.521074 0.776127
vt 0.178939 0.821892
vt 0.411380 0.800012
vt 0.121246 0.727396
vt 0.452223 0.781267
vt 0.159072 0.761055
vt 0.496548 0.750299
vt 0.199037 0.785851
vt 0.531170 0.714776
vt 0.240700 0.803109
vt 0.561021 0.670939
vt 0.283330 0.812689
vt 0.585798 0.618684
vt 0.326344 0.815185
vt 0.044952 0.558594
vt 0.055796 0.624209
vt 0.615385 0.561086
vt 0.369213 0.811133
vt 0.086601 0.681774
vt 0.511713 0.696685
vt 0.544105 0.659684
vt 0.251364 0.766376
vt 0.288541 0.773426
vt 0.575038 0.612422
vt 0.325638 0.775175
vt 0.049214 0.560038
vt 0.066881 0.617730
vt 0.612360 0.560662
vt 0.362620 0.772132
vt 0.103459 0.669013
vt 0.399424 0.763797
vt 0.140644 0.707167
vt 0.435919 0.749552
vt 0.177284 0.734147
vt 0.477256 0.725401
vt 0.214211 0.753374
vt 0.156061 0.687273
vt 0.390330 0.731683
vt 0.423324 0.720674
vt 0.191577 0.708848
vt 0.461944 0.701626
vt 0.225844 0.723896
vt 0.495791 0.678334
vt 0.259373 0.733854
vt 0.529685 0.647237
vt 0.292380 0.739151
vt 0.565074 0.605481
vt 0.325054 0.740403
vt 0.051854 0.560486
vt 0.076915 0.610119
vt 0.605468 0.558117
vt 0.357630 0.738064
vt 0.118125 0.655340
vt 0.265480 0.704629
vt 0.295266 0.708665
vt 0.556530 0.596963
vt 0.324567 0.709567
vt 0.051604 0.561045
vt 0.085503 0.601026
vt 0.604254 0.557637
vt 0.353781 0.707740
vt 0.130364 0.640873
vt 0.383306 0.702779
vt 0.168984 0.667526
vt 0.413444 0.694134
vt 0.202903 0.684999
vt 0.449687 0.678987
vt 0.234893 0.696884
vt 0.482799 0.660071
vt 0.517188 0.634005
vt 0.377844 0.676441
vt 0.405544 0.669479
vt 0.211835 0.662549
vt 0.439767 0.657354
vt 0.242042 0.671888
vt 0.472009 0.641954
vt 0.270159 0.678035
vt 0.507015 0.620125
vt 0.297465 0.681107
vt 0.548512 0.588263
vt 0.324163 0.681740
vt 0.056700 0.558367
vt 0.093537 0.591736
vt 0.596901 0.551709
vt 0.350769 0.680308
vt 0.140980 0.626224
vt 0.179348 0.648418
vt 0.059412 0.556903
vt 0.595737 0.550672
vt 0.684505 0.318103
vt 0.639354 0.288236
vt 0.703691 0.187335
vt 0.691625 0.005727
vt 0.691625 0.175882
vt 0.748842 0.342283
s 0
usemtl マテリアル.002
f 481/1/1 21/2/1 482/3/1
f 3/4/2 14/5/2 4/6/2
f 474/7/3 82/8/3 7/9/3
f 308/10/4 482/3/4 21/2/4
f 4/6/5 15/11/5 5/12/5
f 475/13/6 7/9/6 8/14/6
f 5/12/7 16/15/7 478/16/7
f 1/17/8 8/14/8 9/18/8
f 478/16/9 17/19/9 6/20/9
f 476/21/10 9/18/10 10/22/10
f 6/20/11 18/23/11 479/24/11
f 476/21/12 11/25/12 2/26/12
f 479/24/13 19/27/13 480/28/13
f 477/29/14 11/25/14 12/30/14
f 480/28/15 20/31/15 481/1/15
f 477/29/16 13/32/16 3/4/16
f 11/25/17 27/33/17 12/30/17
f 19/27/18 35/34/18 20/31/18
f 13/32/19 27/33/19 28/35/19
f 20/31/20 36/36/20 21/2/20
f 13/32/21 29/37/21 14/5/21
f 7/9/22 82/38/22 22/39/22
f 308/40/23 21/2/23 36/36/23
f 14/5/24 30/41/24 15/11/24
f 7/9/25 23/42/25 8/14/25
f 15/11/26 31/43/26 16/15/26
f 9/18/27 23/42/27 24/44/27
f 16/15/28 32/45/28 17/19/28
f 10/22/29 24/44/29 25/46/29
f 18/23/30 32/45/30 33/47/30
f 10/22/31 26/48/31 11/25/31
f 19/27/32 33/47/32 34/49/32
f 30/41/33 46/50/33 31/43/33
f 23/42/34 39/51/34 24/44/34
f 32/45/35 46/50/35 47/52/35
f 24/44/36 40/53/36 25/46/36
f 32/45/37 48/54/37 33/47/37
f 25/46/38 41/55/38 26/48/38
f 34/49/39 48/54/39 49/56/39
f 26/48/40 42/57/40 27/33/40
f 34/49/41 50/58/41 35/34/41
f 28/35/42 42/57/42 43/59/42
f 35/34/43 51/60/43 36/36/43
f 29/37/44 43/59/44 44/61/44
f 22/39/45 82/62/45 37/63/45
f 308/64/46 36/36/46 51/60/46
f 29/37/47 45/65/47 30/41/47
f 22/39/48 38/66/48 23/42/48
f 50/58/49 64/67/49 65/68/49
f 43/59/50 57/69/50 58/70/50
f 50/58/51 66/71/51 51/60/51
f 44/61/52 58/70/52 59/72/52
f 37/63/53 82/73/53 52/74/53
f 308/75/54 51/60/54 66/71/54
f 44/61/55 60/76/55 45/65/55
f 37/63/56 53/77/56 38/66/56
f 45/65/57 61/78/57 46/50/57
f 38/66/58 54/79/58 39/51/58
f 47/52/59 61/78/59 62/80/59
f 39/51/60 55/81/60 40/53/60
f 48/54/61 62/80/61 63/82/61
f 41/55/62 55/81/62 56/83/62
f 49/56/63 63/82/63 64/67/63
f 41/55/64 57/69/64 42/57/64
f 62/80/65 76/84/65 77/85/65
f 54/79/66 70/86/66 55/81/66
f 62/80/67 78/87/67 63/82/67
f 56/83/68 70/86/68 71/88/68
f 64/67/69 78/87/69 79/89/69
f 56/83/70 72/90/70 57/69/70
f 64/67/71 80/91/71 65/68/71
f 58/70/72 72/90/72 73/92/72
f 65/68/73 81/93/73 66/71/73
f 59/72/74 73/92/74 74/94/74
f 52/74/75 82/95/75 67/96/75
f 308/97/76 66/71/76 81/93/76
f 59/72/77 75/98/77 60/76/77
f 53/77/78 67/96/78 68/99/78
f 60/76/79 76/84/79 61/78/79
f 53/77/80 69/100/80 54/79/80
f 81/93/81 96/101/81 97/102/81
f 74/94/82 89/103/82 90/104/82
f 67/96/83 82/105/83 83/106/83
f 308/107/84 81/93/84 97/102/84
f 74/94/85 91/108/85 75/98/85
f 67/96/86 84/109/86 68/99/86
f 75/98/87 92/110/87 76/84/87
f 68/99/88 85/111/88 69/100/88
f 77/85/89 92/110/89 93/112/89
f 70/86/90 85/111/90 86/113/90
f 77/85/91 94/114/91 78/87/91
f 71/88/92 86/113/92 87/115/92
f 78/87/93 95/116/93 79/89/93
f 71/88/94 88/117/94 72/90/94
f 79/89/95 96/101/95 80/91/95
f 73/92/96 88/117/96 89/103/96
f 85/111/97 101/118/97 86/113/97
f 93/112/98 109/119/98 94/114/98
f 87/115/99 101/118/99 102/120/99
f 95/116/100 109/119/100 110/121/100
f 87/115/101 103/122/101 88/117/101
f 95/116/102 111/123/102 96/101/102
f 89/103/103 103/122/103 104/124/103
f 96/101/104 112/125/104 97/102/104
f 90/104/105 104/124/105 105/126/105
f 83/106/106 82/127/106 98/128/106
f 308/129/107 97/102/107 112/125/107
f 90/104/108 106/130/108 91/108/108
f 83/106/109 99/131/109 84/109/109
f 91/108/110 107/132/110 92/110/110
f 85/111/111 99/131/111 100/133/111
f 93/112/112 107/132/112 108/134/112
f 105/126/113 119/135/113 120/136/113
f 98/128/114 82/137/114 113/138/114
f 308/139/115 112/125/115 127/140/115
f 105/126/116 121/141/116 106/130/116
f 98/128/117 114/142/117 99/131/117
f 106/130/118 122/143/118 107/132/118
f 99/131/119 115/144/119 100/133/119
f 108/134/120 122/143/120 123/145/120
f 100/133/121 116/146/121 101/118/121
f 108/134/122 124/147/122 109/119/122
f 102/120/123 116/146/123 117/148/123
f 110/121/124 124/147/124 125/149/124
f 102/120/125 118/150/125 103/122/125
f 110/121/126 126/151/126 111/123/126
f 104/124/127 118/150/127 119/135/127
f 112/125/128 126/151/128 127/140/128
f 123/145/129 139/152/129 124/147/129
f 117/148/130 131/153/130 132/154/130
f 124/147/131 140/155/131 125/149/131
f 117/148/132 133/156/132 118/150/132
f 125/149/133 141/157/133 126/151/133
f 119/135/134 133/156/134 134/158/134
f 126/151/135 142/159/135 127/140/135
f 120/136/136 134/158/136 135/160/136
f 113/138/137 82/161/137 128/162/137
f 308/163/138 127/140/138 142/159/138
f 120/136/139 136/164/139 121/141/139
f 114/142/140 128/162/140 129/165/140
f 121/141/141 137/166/141 122/143/141
f 115/144/142 129/165/142 130/167/142
f 123/145/143 137/166/143 138/168/143
f 115/144/144 131/153/144 116/146/144
f 128/162/145 82/169/145 143/170/145
f 308/171/146 142/159/146 157/172/146
f 135/160/147 151/173/147 136/164/147
f 128/162/148 144/174/148 129/165/148
f 136/164/149 152/175/149 137/166/149
f 130/167/150 144/174/150 145/176/150
f 138/168/151 152/175/151 153/177/151
f 130/167/152 146/178/152 131/153/152
f 138/168/153 154/179/153 139/152/153
f 131/153/154 147/180/154 132/154/154
f 139/152/155 155/181/155 140/155/155
f 132/154/156 148/182/156 133/156/156
f 141/157/157 155/181/157 156/183/157
f 134/158/158 148/182/158 149/184/158
f 142/159/159 156/183/159 157/172/159
f 135/160/160 149/184/160 150/185/160
f 147/180/161 161/186/161 162/187/161
f 154/179/162 170/188/162 155/181/162
f 147/180/163 163/189/163 148/182/163
f 156/183/164 170/188/164 171/190/164
f 149/184/165 163/189/165 164/191/165
f 156/183/166 172/192/166 157/172/166
f 150/185/167 164/191/167 165/193/167
f 143/170/168 82/194/168 158/195/168
f 308/196/169 157/172/169 172/192/169
f 150/185/170 166/197/170 151/173/170
f 143/170/171 159/198/171 144/174/171
f 151/173/172 167/199/172 152/175/172
f 144/174/173 160/200/173 145/176/173
f 153/177/174 167/199/174 168/201/174
f 145/176/175 161/186/175 146/178/175
f 153/177/176 169/202/176 154/179/176
f 165/193/177 181/203/177 166/197/177
f 158/195/178 174/204/178 159/198/178
f 166/197/179 182/205/179 167/199/179
f 159/198/180 175/206/180 160/200/180
f 168/201/181 182/205/181 183/207/181
f 160/200/182 176/208/182 161/186/182
f 168/201/183 184/209/183 169/202/183
f 162/187/184 176/208/184 177/210/184
f 169/202/185 185/211/185 170/188/185
f 162/187/186 178/212/186 163/189/186
f 171/190/187 185/211/187 186/213/187
f 164/191/188 178/212/188 179/214/188
f 171/190/189 187/215/189 172/192/189
f 165/193/190 179/214/190 180/216/190
f 158/195/191 82/217/191 173/218/191
f 308/219/192 172/192/192 187/215/192
f 184/209/193 200/220/193 185/211/193
f 193/221/194 282/222/194 297/223/194
f 185/211/195 201/224/195 186/213/195
f 208/225/196 283/226/196 207/227/196
f 186/213/197 202/228/197 187/215/197
f 180/216/198 194/229/198 195/230/198
f 173/218/199 82/231/199 188/232/199
f 308/233/200 187/215/200 202/228/200
f 180/216/201 196/234/201 181/203/201
f 173/218/202 189/235/202 174/204/202
f 181/203/203 197/236/203 182/205/203
f 174/204/204 190/237/204 175/206/204
f 183/207/205 197/236/205 198/238/205
f 175/206/206 191/239/206 176/208/206
f 183/207/207 199/240/207 184/209/207
f 177/210/208 191/239/208 192/241/208
f 196/234/209 212/242/209 197/236/209
f 189/235/210 205/243/210 190/237/210
f 198/238/211 212/242/211 213/244/211
f 190/237/212 206/245/212 191/239/212
f 198/238/213 214/246/213 199/240/213
f 192/241/214 206/245/214 207/247/214
f 199/240/215 215/248/215 200/220/215
f 193/221/216 284/249/216 269/250/216
f 201/224/217 215/248/217 216/251/217
f 193/221/218 268/252/218 267/253/218
f 201/224/219 217/254/219 202/228/219
f 195/230/220 209/255/220 210/256/220
f 188/232/221 82/257/221 203/258/221
f 308/259/222 202/228/222 217/254/222
f 195/230/223 211/260/223 196/234/223
f 188/232/224 204/261/224 189/235/224
f 216/251/225 230/262/225 231/263/225
f 209/255/226 223/264/226 224/265/226
f 216/251/227 232/266/227 217/254/227
f 210/256/228 224/265/228 225/267/228
f 203/258/229 82/268/229 218/269/229
f 308/270/230 217/254/230 232/266/230
f 210/256/231 226/271/231 211/260/231
f 203/258/232 219/272/232 204/261/232
f 211/260/233 227/273/233 212/242/233
f 204/261/234 220/274/234 205/243/234
f 213/244/235 227/273/235 228/275/235
f 205/243/236 221/276/236 206/245/236
f 213/244/237 229/277/237 214/246/237
f 207/247/238 221/276/238 222/278/238
f 215/248/239 229/277/239 230/262/239
f 207/247/240 223/264/240 208/279/240
f 220/274/241 234/280/241 235/281/241
f 228/275/242 242/282/242 243/283/242
f 220/274/243 236/284/243 221/276/243
f 228/275/244 244/285/244 229/277/244
f 222/278/245 236/284/245 237/286/245
f 230/262/246 244/285/246 245/287/246
f 222/278/247 238/288/247 223/264/247
f 231/263/248 245/287/248 246/289/248
f 224/265/249 238/288/249 239/290/249
f 231/263/250 247/291/250 232/266/250
f 225/292/251 239/293/251 240/294/251
f 218/269/252 82/295/252 233/296/252
f 308/297/253 232/266/253 247/291/253
f 225/292/254 241/298/254 226/299/254
f 219/272/255 233/296/255 234/280/255
f 226/271/256 242/282/256 227/273/256
f 239/290/257 253/300/257 254/301/257
f 246/289/258 262/302/258 247/291/258
f 239/303/259 255/304/259 240/294/259
f 233/296/260 82/305/260 248/306/260
f 308/307/261 247/291/261 262/302/261
f 241/298/262 255/304/262 256/308/262
f 234/280/263 248/306/263 249/309/263
f 241/310/264 257/311/264 242/282/264
f 234/280/265 250/312/265 235/281/265
f 243/283/266 257/311/266 258/313/266
f 235/281/267 251/314/267 236/284/267
f 243/283/268 259/315/268 244/285/268
f 237/286/269 251/314/269 252/316/269
f 244/285/270 260/317/270 245/287/270
f 237/286/271 253/300/271 238/288/271
f 245/287/272 261/318/272 246/289/272
f 258/313/273 272/319/273 273/320/273
f 250/312/274 266/321/274 251/314/274
f 258/313/275 274/322/275 259/315/275
f 252/316/276 266/321/276 267/323/276
f 259/315/277 275/324/277 260/317/277
f 252/316/278 268/325/278 253/300/278
f 261/318/279 275/324/279 276/326/279
f 254/301/280 268/325/280 269/327/280
f 261/318/281 277/328/281 262/302/281
f 255/329/282 269/327/282 270/330/282
f 248/306/283 82/331/283 263/332/283
f 308/333/284 262/302/284 277/328/284
f 255/329/285 271/334/285 256/335/285
f 249/309/286 263/332/286 264/336/286
f 256/335/287 272/319/287 257/311/287
f 249/309/288 265/337/288 250/312/288
f 276/326/289 292/338/289 277/328/289
f 270/330/290 284/339/290 285/340/290
f 263/332/291 82/341/291 278/342/291
f 308/343/292 277/328/292 292/338/292
f 270/330/293 286/344/293 271/334/293
f 263/332/294 279/345/294 264/336/294
f 271/334/295 287/346/295 272/319/295
f 264/336/296 280/347/296 265/337/296
f 273/320/297 287/346/297 288/348/297
f 265/337/298 281/349/298 266/321/298
f 273/320/299 289/350/299 274/322/299
f 267/323/300 281/349/300 282/351/300
f 274/322/301 290/352/301 275/324/301
f 283/226/302 192/353/302 207/227/302
f 276/326/303 290/352/303 291/354/303
f 298/355/304 193/221/304 297/223/304
f 280/347/305 296/356/305 281/349/305
f 288/348/306 304/357/306 289/350/306
f 282/351/307 296/356/307 297/358/307
f 290/352/308 304/357/308 305/359/308
f 283/226/309 194/360/309 179/361/309
f 290/352/310 306/362/310 291/354/310
f 283/226/311 178/363/311 177/364/311
f 291/354/312 307/365/312 292/338/312
f 285/340/313 299/366/313 300/367/313
f 278/342/314 82/368/314 293/369/314
f 308/370/315 292/338/315 307/365/315
f 285/340/316 301/371/316 286/344/316
f 278/342/317 294/372/317 279/345/317
f 286/344/318 302/373/318 287/346/318
f 279/345/319 295/374/319 280/347/319
f 288/348/320 302/373/320 303/375/320
f 300/367/321 315/376/321 316/377/321
f 293/369/322 82/378/322 309/379/322
f 308/380/323 307/365/323 323/381/323
f 300/367/324 317/382/324 301/371/324
f 293/369/325 310/383/325 294/372/325
f 301/371/326 318/384/326 302/373/326
f 294/372/327 311/385/327 295/374/327
f 303/375/328 318/384/328 319/386/328
f 295/374/329 312/387/329 296/356/329
f 303/375/330 320/388/330 304/357/330
f 297/358/331 312/387/331 313/389/331
f 305/359/332 320/388/332 321/390/332
f 297/358/333 314/391/333 298/392/333
f 306/362/334 321/390/334 322/393/334
f 299/366/335 314/391/335 315/376/335
f 306/362/336 323/381/336 307/365/336
f 319/386/337 335/394/337 320/388/337
f 313/389/338 327/395/338 328/396/338
f 320/388/339 336/397/339 321/390/339
f 313/389/340 329/398/340 314/391/340
f 321/390/341 337/399/341 322/393/341
f 315/376/342 329/398/342 330/400/342
f 322/393/343 338/401/343 323/381/343
f 316/377/344 330/400/344 331/402/344
f 309/379/345 82/403/345 324/404/345
f 308/405/346 323/381/346 338/401/346
f 316/377/347 332/406/347 317/382/347
f 309/379/348 325/407/348 310/383/348
f 317/382/349 333/408/349 318/384/349
f 310/383/350 326/409/350 311/385/350
f 319/386/351 333/408/351 334/410/351
f 311/385/352 327/395/352 312/387/352
f 308/411/353 338/401/353 353/412/353
f 331/402/354 347/413/354 332/406/354
f 324/404/355 340/414/355 325/407/355
f 332/406/356 348/415/356 333/408/356
f 326/409/357 340/414/357 341/416/357
f 334/410/358 348/415/358 349/417/358
f 326/409/359 342/418/359 327/395/359
f 334/410/360 350/419/360 335/394/360
f 328/396/361 342/418/361 343/420/361
f 335/394/362 351/421/362 336/397/362
f 328/396/363 344/422/363 329/398/363
f 336/397/364 352/423/364 337/399/364
f 330/400/365 344/422/365 345/424/365
f 338/401/366 352/423/366 353/412/366
f 331/402/367 345/424/367 346/425/367
f 324/404/368 82/426/368 339/427/368
f 350/419/369 366/428/369 351/421/369
f 343/420/370 359/429/370 344/422/370
f 352/423/371 366/428/371 367/430/371
f 345/424/372 359/429/372 360/431/372
f 353/412/373 367/430/373 368/432/373
f 346/425/374 360/431/374 361/433/374
f 339/427/375 82/434/375 354/435/375
f 308/436/376 353/412/376 368/432/376
f 346/425/377 362/437/377 347/413/377
f 339/427/378 355/438/378 340/414/378
f 347/413/379 363/439/379 348/415/379
f 340/414/380 356/440/380 341/416/380
f 349/417/381 363/439/381 364/441/381
f 341/416/382 357/442/382 342/418/382
f 349/417/383 365/443/383 350/419/383
f 343/420/384 357/442/384 358/444/384
f 355/445/385 369/446/385 370/447/385
f 362/448/386 378/449/386 363/450/386
f 356/451/387 370/447/387 371/452/387
f 364/453/388 378/449/388 379/454/388
f 356/451/389 372/455/389 357/456/389
f 364/453/390 380/457/390 365/458/390
f 358/459/391 372/455/391 373/460/391
f 365/458/392 381/461/392 366/462/392
f 358/459/393 374/463/393 359/464/393
f 367/465/394 381/461/394 382/466/394
f 360/467/395 374/463/395 375/468/395
f 367/465/396 383/469/396 368/470/396
f 361/471/397 375/468/397 376/472/397
f 354/473/398 82/474/398 369/446/398
f 308/475/399 368/470/399 383/469/399
f 361/471/400 377/476/400 362/448/400
f 373/460/401 389/477/401 374/463/401
f 382/466/402 396/478/402 397/479/402
f 375/468/403 389/477/403 390/480/403
f 382/466/404 398/481/404 383/469/404
f 376/472/405 390/480/405 391/482/405
f 369/446/406 82/483/406 384/484/406
f 308/485/407 383/469/407 398/481/407
f 376/472/408 392/486/408 377/476/408
f 369/446/409 385/487/409 370/447/409
f 377/476/410 393/488/410 378/449/410
f 370/447/411 386/489/411 371/452/411
f 379/454/412 393/488/412 394/490/412
f 371/452/413 387/491/413 372/455/413
f 379/454/414 395/492/414 380/457/414
f 373/460/415 387/491/415 388/493/415
f 380/457/416 396/478/416 381/461/416
f 392/486/417 408/494/417 393/488/417
f 385/487/418 401/495/418 386/489/418
f 394/490/419 408/494/419 409/496/419
f 386/489/420 402/497/420 387/491/420
f 394/490/421 410/498/421 395/492/421
f 388/493/422 402/497/422 403/499/422
f 395/492/423 411/500/423 396/478/423
f 388/493/424 404/501/424 389/477/424
f 397/479/425 411/500/425 412/502/425
f 390/480/426 404/501/426 405/503/426
f 398/481/427 412/502/427 413/504/427
f 391/482/428 405/503/428 406/505/428
f 384/484/429 82/506/429 399/507/429
f 308/508/430 398/481/430 413/504/430
f 391/482/431 407/509/431 392/486/431
f 384/484/432 400/510/432 385/487/432
f 412/502/433 426/511/433 427/512/433
f 405/503/434 419/513/434 420/514/434
f 413/504/435 427/512/435 428/515/435
f 406/505/436 420/514/436 421/516/436
f 399/507/437 82/517/437 414/518/437
f 308/519/438 413/504/438 428/515/438
f 406/505/439 422/520/439 407/509/439
f 399/507/440 415/521/440 400/510/440
f 407/509/441 423/522/441 408/494/441
f 400/510/442 416/523/442 401/495/442
f 409/496/443 423/522/443 424/524/443
f 401/495/444 417/525/444 402/497/444
f 409/496/445 425/526/445 410/498/445
f 403/499/446 417/525/446 418/527/446
f 410/498/447 426/511/447 411/500/447
f 403/499/448 419/513/448 404/501/448
f 415/521/449 431/528/449 416/523/449
f 424/524/450 438/529/450 439/530/450
f 416/523/451 432/531/451 417/525/451
f 424/524/452 440/532/452 425/526/452
f 418/527/453 432/531/453 433/533/453
f 425/526/454 441/534/454 426/511/454
f 418/527/455 434/535/455 419/513/455
f 427/512/456 441/534/456 442/536/456
f 420/514/457 434/535/457 435/537/457
f 427/512/458 443/538/458 428/515/458
f 421/516/459 435/537/459 436/539/459
f 414/518/460 82/540/460 429/541/460
f 308/542/461 428/515/461 443/538/461
f 421/516/462 437/543/462 422/520/462
f 414/518/463 430/544/463 415/521/463
f 422/520/464 438/529/464 423/522/464
f 435/537/465 449/545/465 450/546/465
f 442/536/466 458/547/466 443/538/466
f 436/539/467 450/546/467 451/548/467
f 429/541/468 82/549/468 444/550/468
f 308/551/469 443/538/469 458/547/469
f 436/539/470 452/552/470 437/543/470
f 430/544/471 444/550/471 445/553/471
f 437/543/472 453/554/472 438/529/472
f 431/528/473 445/553/473 446/555/473
f 439/530/474 453/554/474 454/556/474
f 431/528/475 447/557/475 432/531/475
f 439/530/476 455/558/476 440/532/476
f 433/533/477 447/557/477 448/559/477
f 440/532/478 456/560/478 441/534/478
f 433/533/479 449/545/479 434/535/479
f 442/536/480 456/560/480 457/561/480
f 454/556/481 468/562/481 469/563/481
f 446/555/482 462/564/482 447/557/482
f 454/556/483 470/565/483 455/558/483
f 448/559/484 462/564/484 463/566/484
f 455/558/485 471/567/485 456/560/485
f 448/559/486 464/568/486 449/545/486
f 456/560/487 472/569/487 457/561/487
f 450/546/488 464/568/488 465/570/488
f 458/547/489 472/569/489 473/571/489
f 451/548/490 465/570/490 466/572/490
f 444/550/491 82/573/491 459/574/491
f 308/575/492 458/547/492 473/571/492
f 451/548/493 467/576/493 452/552/493
f 444/550/494 460/577/494 445/553/494
f 452/552/495 468/562/495 453/554/495
f 445/553/496 461/578/496 446/555/496
f 472/569/497 482/3/497 473/571/497
f 466/572/498 3/4/498 4/6/498
f 459/574/499 82/579/499 474/7/499
f 308/580/500 473/571/500 482/3/500
f 466/572/501 5/12/501 467/576/501
f 460/577/502 474/7/502 475/13/502
f 467/576/503 478/16/503 468/562/503
f 461/578/504 475/13/504 1/17/504
f 468/562/505 6/20/505 469/563/505
f 462/564/506 1/17/506 476/21/506
f 469/563/507 479/24/507 470/565/507
f 463/566/508 476/21/508 2/26/508
f 471/567/509 479/24/509 480/28/509
f 464/568/510 2/26/510 477/29/510
f 472/569/511 480/28/511 481/1/511
f 465/570/512 477/29/512 3/4/512
f 481/1/1 20/31/1 21/2/1
f 3/4/513 13/32/513 14/5/513
f 4/6/5 14/5/5 15/11/5
f 475/13/6 474/7/6 7/9/6
f 5/12/7 15/11/7 16/15/7
f 1/17/8 475/13/8 8/14/8
f 478/16/9 16/15/9 17/19/9
f 476/21/10 1/17/10 9/18/10
f 6/20/11 17/19/11 18/23/11
f 476/21/12 10/22/12 11/25/12
f 479/24/13 18/23/13 19/27/13
f 477/29/14 2/26/14 11/25/14
f 480/28/15 19/27/15 20/31/15
f 477/29/16 12/30/16 13/32/16
f 11/25/17 26/48/17 27/33/17
f 19/27/18 34/49/18 35/34/18
f 13/32/19 12/30/19 27/33/19
f 20/31/20 35/34/20 36/36/20
f 13/32/514 28/35/514 29/37/514
f 14/5/515 29/37/515 30/41/515
f 7/9/25 22/39/25 23/42/25
f 15/11/26 30/41/26 31/43/26
f 9/18/27 8/14/27 23/42/27
f 16/15/28 31/43/28 32/45/28
f 10/22/29 9/18/29 24/44/29
f 18/23/30 17/19/30 32/45/30
f 10/22/31 25/46/31 26/48/31
f 19/27/32 18/23/32 33/47/32
f 30/41/33 45/65/33 46/50/33
f 23/42/34 38/66/34 39/51/34
f 32/45/35 31/43/35 46/50/35
f 24/44/36 39/51/36 40/53/36
f 32/45/37 47/52/37 48/54/37
f 25/46/38 40/53/38 41/55/38
f 34/49/39 33/47/39 48/54/39
f 26/48/40 41/55/40 42/57/40
f 34/49/41 49/56/41 50/58/41
f 28/35/42 27/33/42 42/57/42
f 35/34/43 50/58/43 51/60/43
f 29/37/516 28/35/516 43/59/516
f 29/37/517 44/61/517 45/65/517
f 22/39/48 37/63/48 38/66/48
f 50/58/49 49/56/49 64/67/49
f 43/59/50 42/57/50 57/69/50
f 50/58/51 65/68/51 66/71/51
f 44/61/52 43/59/52 58/70/52
f 44/61/55 59/72/55 60/76/55
f 37/63/56 52/74/56 53/77/56
f 45/65/57 60/76/57 61/78/57
f 38/66/58 53/77/58 54/79/58
f 47/52/59 46/50/59 61/78/59
f 39/51/60 54/79/60 55/81/60
f 48/54/61 47/52/61 62/80/61
f 41/55/62 40/53/62 55/81/62
f 49/56/63 48/54/63 63/82/63
f 41/55/64 56/83/64 57/69/64
f 62/80/65 61/78/65 76/84/65
f 54/79/66 69/100/66 70/86/66
f 62/80/67 77/85/67 78/87/67
f 56/83/68 55/81/68 70/86/68
f 64/67/69 63/82/69 78/87/69
f 56/83/70 71/88/70 72/90/70
f 64/67/71 79/89/71 80/91/71
f 58/70/72 57/69/72 72/90/72
f 65/68/73 80/91/73 81/93/73
f 59/72/74 58/70/74 73/92/74
f 59/72/77 74/94/77 75/98/77
f 53/77/78 52/74/78 67/96/78
f 60/76/79 75/98/79 76/84/79
f 53/77/80 68/99/80 69/100/80
f 81/93/81 80/91/81 96/101/81
f 74/94/82 73/92/82 89/103/82
f 74/94/85 90/104/85 91/108/85
f 67/96/86 83/106/86 84/109/86
f 75/98/87 91/108/87 92/110/87
f 68/99/88 84/109/88 85/111/88
f 77/85/89 76/84/89 92/110/89
f 70/86/90 69/100/90 85/111/90
f 77/85/91 93/112/91 94/114/91
f 71/88/92 70/86/92 86/113/92
f 78/87/93 94/114/93 95/116/93
f 71/88/94 87/115/94 88/117/94
f 79/89/95 95/116/95 96/101/95
f 73/92/96 72/90/96 88/117/96
f 85/111/97 100/133/97 101/118/97
f 93/112/98 108/134/98 109/119/98
f 87/115/99 86/113/99 101/118/99
f 95/116/100 94/114/100 109/119/100
f 87/115/101 102/120/101 103/122/101
f 95/116/102 110/121/102 111/123/102
f 89/103/103 88/117/103 103/122/103
f 96/101/104 111/123/104 112/125/104
f 90/104/105 89/103/105 104/124/105
f 90/104/108 105/126/108 106/130/108
f 83/106/109 98/128/109 99/131/109
f 91/108/110 106/130/110 107/132/110
f 85/111/111 84/109/111 99/131/111
f 93/112/112 92/110/112 107/132/112
f 105/126/518 104/124/518 119/135/518
f 105/126/519 120/136/519 121/141/519
f 98/128/117 113/138/117 114/142/117
f 106/130/118 121/141/118 122/143/118
f 99/131/119 114/142/119 115/144/119
f 108/134/120 107/132/120 122/143/120
f 100/133/121 115/144/121 116/146/121
f 108/134/122 123/145/122 124/147/122
f 102/120/123 101/118/123 116/146/123
f 110/121/124 109/119/124 124/147/124
f 102/120/125 117/148/125 118/150/125
f 110/121/126 125/149/126 126/151/126
f 104/124/127 103/122/127 118/150/127
f 112/125/128 111/123/128 126/151/128
f 123/145/129 138/168/129 139/152/129
f 117/148/130 116/146/130 131/153/130
f 124/147/131 139/152/131 140/155/131
f 117/148/132 132/154/132 133/156/132
f 125/149/133 140/155/133 141/157/133
f 119/135/134 118/150/134 133/156/134
f 126/151/135 141/157/135 142/159/135
f 120/136/520 119/135/520 134/158/520
f 120/136/521 135/160/521 136/164/521
f 114/142/140 113/138/140 128/162/140
f 121/141/141 136/164/141 137/166/141
f 115/144/142 114/142/142 129/165/142
f 123/145/143 122/143/143 137/166/143
f 115/144/144 130/167/144 131/153/144
f 135/160/147 150/185/147 151/173/147
f 128/162/148 143/170/148 144/174/148
f 136/164/149 151/173/149 152/175/149
f 130/167/150 129/165/150 144/174/150
f 138/168/151 137/166/151 152/175/151
f 130/167/152 145/176/152 146/178/152
f 138/168/153 153/177/153 154/179/153
f 131/153/154 146/178/154 147/180/154
f 139/152/155 154/179/155 155/181/155
f 132/154/156 147/180/156 148/182/156
f 141/157/157 140/155/157 155/181/157
f 134/158/158 133/156/158 148/182/158
f 142/159/159 141/157/159 156/183/159
f 135/160/160 134/158/160 149/184/160
f 147/180/161 146/178/161 161/186/161
f 154/179/162 169/202/162 170/188/162
f 147/180/163 162/187/163 163/189/163
f 156/183/164 155/181/164 170/188/164
f 149/184/165 148/182/165 163/189/165
f 156/183/166 171/190/166 172/192/166
f 150/185/167 149/184/167 164/191/167
f 150/185/170 165/193/170 166/197/170
f 143/170/171 158/195/171 159/198/171
f 151/173/172 166/197/172 167/199/172
f 144/174/173 159/198/173 160/200/173
f 153/177/174 152/175/174 167/199/174
f 145/176/175 160/200/175 161/186/175
f 153/177/176 168/201/176 169/202/176
f 165/193/177 180/216/177 181/203/177
f 158/195/178 173/218/178 174/204/178
f 166/197/179 181/203/179 182/205/179
f 159/198/180 174/204/180 175/206/180
f 168/201/181 167/199/181 182/205/181
f 160/200/182 175/206/182 176/208/182
f 168/201/183 183/207/183 184/209/183
f 162/187/184 161/186/184 176/208/184
f 169/202/185 184/209/185 185/211/185
f 162/187/186 177/210/186 178/212/186
f 171/190/187 170/188/187 185/211/187
f 164/191/188 163/189/188 178/212/188
f 171/190/189 186/213/189 187/215/189
f 165/193/190 164/191/190 179/214/190
f 184/209/193 199/240/193 200/220/193
f 193/221/522 267/253/522 282/222/522
f 185/211/195 200/220/195 201/224/195
f 208/225/523 209/581/523 283/226/523
f 186/213/197 201/224/197 202/228/197
f 180/216/198 179/214/198 194/229/198
f 180/216/201 195/230/201 196/234/201
f 173/218/202 188/232/202 189/235/202
f 181/203/203 196/234/203 197/236/203
f 174/204/204 189/235/204 190/237/204
f 183/207/205 182/205/205 197/236/205
f 175/206/206 190/237/206 191/239/206
f 183/207/207 198/238/207 199/240/207
f 177/210/208 176/208/208 191/239/208
f 196/234/209 211/260/209 212/242/209
f 189/235/210 204/261/210 205/243/210
f 198/238/211 197/236/211 212/242/211
f 190/237/212 205/243/212 206/245/212
f 198/238/213 213/244/213 214/246/213
f 192/241/214 191/239/214 206/245/214
f 199/240/215 214/246/215 215/248/215
f 193/221/524 299/582/524 284/249/524
f 201/224/217 200/220/217 215/248/217
f 193/221/525 269/583/525 268/252/525
f 201/224/219 216/251/219 217/254/219
f 195/230/220 194/229/220 209/255/220
f 195/230/223 210/256/223 211/260/223
f 188/232/224 203/258/224 204/261/224
f 216/251/225 215/248/225 230/262/225
f 209/255/226 208/279/226 223/264/226
f 216/251/227 231/263/227 232/266/227
f 210/256/228 209/255/228 224/265/228
f 210/256/231 225/267/231 226/271/231
f 203/258/232 218/269/232 219/272/232
f 211/260/233 226/271/233 227/273/233
f 204/261/234 219/272/234 220/274/234
f 213/244/235 212/242/235 227/273/235
f 205/243/236 220/274/236 221/276/236
f 213/244/237 228/275/237 229/277/237
f 207/247/238 206/245/238 221/276/238
f 215/248/239 214/246/239 229/277/239
f 207/247/240 222/278/240 223/264/240
f 220/274/241 219/272/241 234/280/241
f 228/275/242 227/273/242 242/282/242
f 220/274/243 235/281/243 236/284/243
f 228/275/244 243/283/244 244/285/244
f 222/278/245 221/276/245 236/284/245
f 230/262/246 229/277/246 244/285/246
f 222/278/247 237/286/247 238/288/247
f 231/263/248 230/262/248 245/287/248
f 224/265/249 223/264/249 238/288/249
f 231/263/250 246/289/250 247/291/250
f 225/292/526 224/584/526 239/293/526
f 225/292/527 240/294/527 241/298/527
f 219/272/255 218/269/255 233/296/255
f 226/271/256 241/310/256 242/282/256
f 239/290/257 238/288/257 253/300/257
f 246/289/258 261/318/258 262/302/258
f 239/303/528 254/585/528 255/304/528
f 241/298/529 240/294/529 255/304/529
f 234/280/263 233/296/263 248/306/263
f 241/310/264 256/335/264 257/311/264
f 234/280/265 249/309/265 250/312/265
f 243/283/266 242/282/266 257/311/266
f 235/281/267 250/312/267 251/314/267
f 243/283/268 258/313/268 259/315/268
f 237/286/269 236/284/269 251/314/269
f 244/285/270 259/315/270 260/317/270
f 237/286/271 252/316/271 253/300/271
f 245/287/272 260/317/272 261/318/272
f 258/313/273 257/311/273 272/319/273
f 250/312/274 265/337/274 266/321/274
f 258/313/275 273/320/275 274/322/275
f 252/316/276 251/314/276 266/321/276
f 259/315/277 274/322/277 275/324/277
f 252/316/278 267/323/278 268/325/278
f 261/318/279 260/317/279 275/324/279
f 254/301/280 253/300/280 268/325/280
f 261/318/281 276/326/281 277/328/281
f 255/329/282 254/301/282 269/327/282
f 255/329/285 270/330/285 271/334/285
f 249/309/286 248/306/286 263/332/286
f 256/335/287 271/334/287 272/319/287
f 249/309/288 264/336/288 265/337/288
f 276/326/289 291/354/289 292/338/289
f 270/330/290 269/327/290 284/339/290
f 270/330/293 285/340/293 286/344/293
f 263/332/294 278/342/294 279/345/294
f 271/334/295 286/344/295 287/346/295
f 264/336/296 279/345/296 280/347/296
f 273/320/297 272/319/297 287/346/297
f 265/337/298 280/347/298 281/349/298
f 273/320/299 288/348/299 289/350/299
f 267/323/300 266/321/300 281/349/300
f 274/322/301 289/350/301 290/352/301
f 283/226/530 177/364/530 192/353/530
f 276/326/303 275/324/303 290/352/303
f 298/355/531 299/582/531 193/221/531
f 280/347/305 295/374/305 296/356/305
f 288/348/306 303/375/306 304/357/306
f 282/351/307 281/349/307 296/356/307
f 290/352/308 289/350/308 304/357/308
f 283/226/532 209/586/532 194/360/532
f 290/352/310 305/359/310 306/362/310
f 283/226/533 179/361/533 178/363/533
f 291/354/312 306/362/312 307/365/312
f 285/340/313 284/339/313 299/366/313
f 285/340/316 300/367/316 301/371/316
f 278/342/317 293/369/317 294/372/317
f 286/344/318 301/371/318 302/373/318
f 279/345/319 294/372/319 295/374/319
f 288/348/320 287/346/320 302/373/320
f 300/367/321 299/366/321 315/376/321
f 300/367/324 316/377/324 317/382/324
f 293/369/325 309/379/325 310/383/325
f 301/371/326 317/382/326 318/384/326
f 294/372/327 310/383/327 311/385/327
f 303/375/328 302/373/328 318/384/328
f 295/374/329 311/385/329 312/387/329
f 303/375/330 319/386/330 320/388/330
f 297/358/331 296/356/331 312/387/331
f 305/359/332 304/357/332 320/388/332
f 297/358/333 313/389/333 314/391/333
f 306/362/334 305/359/334 321/390/334
f 299/366/335 298/392/335 314/391/335
f 306/362/336 322/393/336 323/381/336
f 319/386/337 334/410/337 335/394/337
f 313/389/338 312/387/338 327/395/338
f 320/388/339 335/394/339 336/397/339
f 313/389/340 328/396/340 329/398/340
f 321/390/341 336/397/341 337/399/341
f 315/376/342 314/391/342 329/398/342
f 322/393/343 337/399/343 338/401/343
f 316/377/344 315/376/344 330/400/344
f 316/377/347 331/402/347 332/406/347
f 309/379/348 324/404/348 325/407/348
f 317/382/349 332/406/349 333/408/349
f 310/383/350 325/407/350 326/409/350
f 319/386/351 318/384/351 333/408/351
f 311/385/352 326/409/352 327/395/352
f 331/402/354 346/425/354 347/413/354
f 324/404/355 339/427/355 340/414/355
f 332/406/356 347/413/356 348/415/356
f 326/409/357 325/407/357 340/414/357
f 334/410/358 333/408/358 348/415/358
f 326/409/359 341/416/359 342/418/359
f 334/410/360 349/417/360 350/419/360
f 328/396/361 327/395/361 342/418/361
f 335/394/362 350/419/362 351/421/362
f 328/396/363 343/420/363 344/422/363
f 336/397/364 351/421/364 352/423/364
f 330/400/365 329/398/365 344/422/365
f 338/401/366 337/399/366 352/423/366
f 331/402/367 330/400/367 345/424/367
f 350/419/369 365/443/369 366/428/369
f 343/420/370 358/444/370 359/429/370
f 352/423/371 351/421/371 366/428/371
f 345/424/372 344/422/372 359/429/372
f 353/412/373 352/423/373 367/430/373
f 346/425/374 345/424/374 360/431/374
f 346/425/377 361/433/377 362/437/377
f 339/427/378 354/435/378 355/438/378
f 347/413/379 362/437/379 363/439/379
f 340/414/380 355/438/380 356/440/380
f 349/417/381 348/415/381 363/439/381
f 341/416/382 356/440/382 357/442/382
f 349/417/383 364/441/383 365/443/383
f 343/420/384 342/418/384 357/442/384
f 355/445/385 354/473/385 369/446/385
f 362/448/386 377/476/386 378/449/386
f 356/451/387 355/445/387 370/447/387
f 364/453/388 363/450/388 378/449/388
f 356/451/389 371/452/389 372/455/389
f 364/453/390 379/454/390 380/457/390
f 358/459/391 357/456/391 372/455/391
f 365/458/392 380/457/392 381/461/392
f 358/459/393 373/460/393 374/463/393
f 367/465/394 366/462/394 381/461/394
f 360/467/395 359/464/395 374/463/395
f 367/465/396 382/466/396 383/469/396
f 361/471/397 360/467/397 375/468/397
f 361/471/400 376/472/400 377/476/400
f 373/460/401 388/493/401 389/477/401
f 382/466/402 381/461/402 396/478/402
f 375/468/403 374/463/403 389/477/403
f 382/466/404 397/479/404 398/481/404
f 376/472/405 375/468/405 390/480/405
f 376/472/408 391/482/408 392/486/408
f 369/446/409 384/484/409 385/487/409
f 377/476/410 392/486/410 393/488/410
f 370/447/411 385/487/411 386/489/411
f 379/454/412 378/449/412 393/488/412
f 371/452/413 386/489/413 387/491/413
f 379/454/414 394/490/414 395/492/414
f 373/460/415 372/455/415 387/491/415
f 380/457/416 395/492/416 396/478/416
f 392/486/417 407/509/417 408/494/417
f 385/487/418 400/510/418 401/495/418
f 394/490/419 393/488/419 408/494/419
f 386/489/420 401/495/420 402/497/420
f 394/490/421 409/496/421 410/498/421
f 388/493/422 387/491/422 402/497/422
f 395/492/423 410/498/423 411/500/423
f 388/493/424 403/499/424 404/501/424
f 397/479/425 396/478/425 411/500/425
f 390/480/426 389/477/426 404/501/426
f 398/481/427 397/479/427 412/502/427
f 391/482/428 390/480/428 405/503/428
f 391/482/431 406/505/431 407/509/431
f 384/484/432 399/507/432 400/510/432
f 412/502/433 411/500/433 426/511/433
f 405/503/434 404/501/434 419/513/434
f 413/504/435 412/502/435 427/512/435
f 406/505/436 405/503/436 420/514/436
f 406/505/439 421/516/439 422/520/439
f 399/507/440 414/518/440 415/521/440
f 407/509/441 422/520/441 423/522/441
f 400/510/442 415/521/442 416/523/442
f 409/496/443 408/494/443 423/522/443
f 401/495/444 416/523/444 417/525/444
f 409/496/445 424/524/445 425/526/445
f 403/499/446 402/497/446 417/525/446
f 410/498/447 425/526/447 426/511/447
f 403/499/448 418/527/448 419/513/448
f 415/521/449 430/544/449 431/528/449
f 424/524/450 423/522/450 438/529/450
f 416/523/451 431/528/451 432/531/451
f 424/524/452 439/530/452 440/532/452
f 418/527/453 417/525/453 432/531/453
f 425/526/454 440/532/454 441/534/454
f 418/527/455 433/533/455 434/535/455
f 427/512/456 426/511/456 441/534/456
f 420/514/457 419/513/457 434/535/457
f 427/512/458 442/536/458 443/538/458
f 421/516/459 420/514/459 435/537/459
f 421/516/462 436/539/462 437/543/462
f 414/518/463 429/541/463 430/544/463
f 422/520/464 437/543/464 438/529/464
f 435/537/465 434/535/465 449/545/465
f 442/536/466 457/561/466 458/547/466
f 436/539/467 435/537/467 450/546/467
f 436/539/470 451/548/470 452/552/470
f 430/544/471 429/541/471 444/550/471
f 437/543/472 452/552/472 453/554/472
f 431/528/473 430/544/473 445/553/473
f 439/530/474 438/529/474 453/554/474
f 431/528/475 446/555/475 447/557/475
f 439/530/476 454/556/476 455/558/476
f 433/533/477 432/531/477 447/557/477
f 440/532/478 455/558/478 456/560/478
f 433/533/479 448/559/479 449/545/479
f 442/536/480 441/534/480 456/560/480
f 454/556/481 453/554/481 468/562/481
f 446/555/482 461/578/482 462/564/482
f 454/556/483 469/563/483 470/565/483
f 448/559/484 447/557/484 462/564/484
f 455/558/485 470/565/485 471/567/485
f 448/559/486 463/566/486 464/568/486
f 456/560/487 471/567/487 472/569/487
f 450/546/488 449/545/488 464/568/488
f 458/547/489 457/561/489 472/569/489
f 451/548/490 450/546/490 465/570/490
f 451/548/493 466/572/493 467/576/493
f 444/550/494 459/574/494 460/577/494
f 452/552/495 467/576/495 468/562/495
f 445/553/496 460/577/496 461/578/496
f 472/569/497 481/1/497 482/3/497
f 466/572/534 465/570/534 3/4/534
f 466/572/535 4/6/535 5/12/535
f 460/577/502 459/574/502 474/7/502
f 467/576/503 5/12/503 478/16/503
f 461/578/504 460/577/504 475/13/504
f 468/562/505 478/16/505 6/20/505
f 462/564/506 461/578/506 1/17/506
f 469/563/507 6/20/507 479/24/507
f 463/566/508 462/564/508 476/21/508
f 471/567/509 470/565/509 479/24/509
f 464/568/510 463/566/510 2/26/510
f 472/569/511 471/567/511 480/28/511
f 465/570/512 464/568/512 477/29/512
