# Blender 5.0.1
# www.blender.org
mtllib attack_effect.mtl
o 円錐
v 0.228823 0.162170 -0.000000
v 0.228823 0.159055 0.031638
v 0.228823 0.149826 0.062060
v 0.228823 0.134840 0.090097
v 0.228823 0.114672 0.114672
v 0.228823 0.090097 0.134840
v 0.228823 0.062060 0.149826
v 0.228823 0.031638 0.159055
v 0.228823 0.000000 0.162170
v 0.228823 -0.031638 0.159055
v 0.228823 -0.062060 0.149826
v 0.228823 -0.090097 0.134840
v 0.228823 -0.114672 0.114672
v 0.228823 -0.134840 0.090097
v 0.228823 -0.149826 0.062060
v 0.228823 -0.159055 0.031638
v 0.228823 -0.162171 0.000000
v 0.228823 -0.159055 -0.031638
v 0.228823 -0.149826 -0.062060
v 0.228823 -0.134840 -0.090097
v 0.228823 -0.114672 -0.114672
v 0.228823 -0.090097 -0.134840
v 0.228823 -0.062060 -0.149826
v 0.228823 -0.031638 -0.159055
v 0.228823 -0.000000 -0.162170
v 0.228823 0.031638 -0.159055
v 0.228823 0.062060 -0.149826
v 0.228823 0.090097 -0.134840
v 0.228823 0.114672 -0.114672
v 0.228823 0.134840 -0.090097
v 0.228823 0.149826 -0.062060
v 0.228823 0.159055 -0.031638
v -0.339222 0.000000 0.000000
vn -0.2733 0.9573 0.0943
vn -0.2733 0.9205 0.2792
vn -0.2733 0.8483 0.4534
vn -0.2733 0.7436 0.6102
vn -0.2733 0.6102 0.7436
vn -0.2733 0.4534 0.8483
vn -0.2733 0.2792 0.9205
vn -0.2733 0.0943 0.9573
vn -0.2733 -0.0943 0.9573
vn -0.2733 -0.2792 0.9205
vn -0.2733 -0.4534 0.8483
vn -0.2733 -0.6102 0.7436
vn -0.2733 -0.7436 0.6102
vn -0.2733 -0.8483 0.4534
vn -0.2733 -0.9205 0.2792
vn -0.2733 -0.9573 0.0943
vn -0.2733 -0.9573 -0.0943
vn -0.2733 -0.9205 -0.2792
vn -0.2733 -0.8483 -0.4534
vn -0.2733 -0.7436 -0.6102
vn -0.2733 -0.6102 -0.7436
vn -0.2733 -0.4534 -0.8483
vn -0.2733 -0.2792 -0.9205
vn -0.2733 -0.0943 -0.9573
vn -0.2733 0.0943 -0.9573
vn -0.2733 0.2792 -0.9205
vn -0.2733 0.4534 -0.8483
vn -0.2733 0.6102 -0.7436
vn -0.2733 0.7436 -0.6102
vn -0.2733 0.8483 -0.4534
vn 1.0000 -0.0000 -0.0000
vn -0.2733 0.9205 -0.2792
vn -0.2733 0.9573 -0.0943
vt 0.787375 0.048561
vt 0.006802 0.125055
vt 0.782130 0.006680
vt 0.006802 0.909367
vt 0.048995 0.908232
vt 0.091066 0.904828
vt 0.132892 0.899166
vt 0.174354 0.891262
vt 0.215330 0.881139
vt 0.255702 0.868826
vt 0.295354 0.854359
vt 0.334170 0.837780
vt 0.372037 0.819137
vt 0.408847 0.798483
vt 0.444493 0.775880
vt 0.478871 0.751391
vt 0.511882 0.725089
vt 0.543430 0.697049
vt 0.573424 0.667352
vt 0.601777 0.636085
vt 0.628406 0.603338
vt 0.653236 0.569205
vt 0.676193 0.533786
vt 0.697212 0.497184
vt 0.716231 0.459504
vt 0.733196 0.420855
vt 0.748057 0.381350
vt 0.760771 0.341102
vt 0.771302 0.300228
vt 0.779619 0.258848
vt 0.785697 0.217080
vt 0.789520 0.175045
vt 0.791076 0.132865
vt 0.612940 0.915968
vt 0.565104 0.758273
vt 0.800481 0.565104
vt 0.790360 0.090663
vt 0.841878 0.573338
vt 0.945814 0.642786
vt 0.880873 0.589490
vt 0.915968 0.612940
vt 0.969263 0.677880
vt 0.985416 0.716876
vt 0.993650 0.758273
vt 0.993650 0.800481
vt 0.985416 0.841878
vt 0.915968 0.945814
vt 0.969264 0.880873
vt 0.945814 0.915968
vt 0.880874 0.969263
vt 0.841878 0.985416
vt 0.800481 0.993650
vt 0.758273 0.993650
vt 0.716876 0.985416
vt 0.677881 0.969264
vt 0.642786 0.945814
vt 0.589490 0.880874
vt 0.573338 0.841878
vt 0.565104 0.800481
vt 0.573338 0.716876
vt 0.642786 0.612940
vt 0.589490 0.677881
vt 0.612940 0.642786
vt 0.677880 0.589490
vt 0.716876 0.573338
vt 0.758273 0.565104
s 1
usemtl マテリアル.002
f 1/1/1 33/2/1 2/3/1
f 2/4/2 33/2/2 3/5/2
f 3/5/3 33/2/3 4/6/3
f 4/6/4 33/2/4 5/7/4
f 5/7/5 33/2/5 6/8/5
f 6/8/6 33/2/6 7/9/6
f 7/9/7 33/2/7 8/10/7
f 8/10/8 33/2/8 9/11/8
f 9/11/9 33/2/9 10/12/9
f 10/12/10 33/2/10 11/13/10
f 11/13/11 33/2/11 12/14/11
f 12/14/12 33/2/12 13/15/12
f 13/15/13 33/2/13 14/16/13
f 14/16/14 33/2/14 15/17/14
f 15/17/15 33/2/15 16/18/15
f 16/18/16 33/2/16 17/19/16
f 17/19/17 33/2/17 18/20/17
f 18/20/18 33/2/18 19/21/18
f 19/21/19 33/2/19 20/22/19
f 20/22/20 33/2/20 21/23/20
f 21/23/21 33/2/21 22/24/21
f 22/24/22 33/2/22 23/25/22
f 23/25/23 33/2/23 24/26/23
f 24/26/24 33/2/24 25/27/24
f 25/27/25 33/2/25 26/28/25
f 26/28/26 33/2/26 27/29/26
f 27/29/27 33/2/27 28/30/27
f 28/30/28 33/2/28 29/31/28
f 29/31/29 33/2/29 30/32/29
f 30/32/30 33/2/30 31/33/30
f 20/34/31 24/35/31 32/36/31
f 31/33/32 33/2/32 32/37/32
f 32/37/33 33/2/33 1/1/33
f 32/36/31 1/38/31 4/39/31
f 1/38/31 2/40/31 4/39/31
f 2/40/31 3/41/31 4/39/31
f 4/39/31 5/42/31 6/43/31
f 6/43/31 7/44/31 8/45/31
f 8/45/31 9/46/31 12/47/31
f 9/46/31 10/48/31 12/47/31
f 10/48/31 11/49/31 12/47/31
f 12/47/31 13/50/31 14/51/31
f 14/51/31 15/52/31 16/53/31
f 16/53/31 17/54/31 20/34/31
f 17/54/31 18/55/31 20/34/31
f 18/55/31 19/56/31 20/34/31
f 20/34/31 21/57/31 22/58/31
f 22/58/31 23/59/31 24/35/31
f 24/35/31 25/60/31 28/61/31
f 25/60/31 26/62/31 28/61/31
f 26/62/31 27/63/31 28/61/31
f 28/61/31 29/64/31 30/65/31
f 30/65/31 31/66/31 32/36/31
f 4/39/31 6/43/31 8/45/31
f 12/47/31 14/51/31 8/45/31
f 14/51/31 16/53/31 8/45/31
f 20/34/31 22/58/31 24/35/31
f 28/61/31 30/65/31 24/35/31
f 30/65/31 32/36/31 24/35/31
f 32/36/31 4/39/31 16/53/31
f 4/39/31 8/45/31 16/53/31
f 16/53/31 20/34/31 32/36/31
