# Blender 4.4.1
# www.blender.org
mtllib enemy.mtl
o Cube
v 0.383501 0.316595 0.460526
v 0.389296 -0.327233 0.428686
v -0.383501 0.316595 0.460526
v -0.389296 -0.327233 0.428686
v 0.383501 0.289189 -0.421112
v 0.361822 -0.326961 -0.392841
v -0.383501 0.289189 -0.421112
v -0.361822 -0.326961 -0.392841
v 0.248312 -0.326961 -0.392841
v 0.086676 -0.326961 -0.392841
v -0.074960 -0.326961 -0.392841
v -0.236596 -0.326961 -0.392841
v 0.248312 0.405038 0.460526
v 0.086676 0.405038 0.460526
v -0.074960 0.405038 0.460526
v -0.236596 0.405038 0.460526
v -0.236596 0.346098 -0.421112
v -0.074960 0.346098 -0.421112
v 0.086676 0.346098 -0.421112
v 0.248312 0.346098 -0.421112
v -0.236596 -0.327233 0.428686
v -0.074960 -0.327233 0.428686
v 0.086676 -0.327233 0.428686
v 0.248312 -0.327233 0.428686
v 0.361822 -0.355059 0.276316
v 0.361822 -0.358328 0.092105
v 0.361822 -0.358328 -0.092105
v 0.361822 -0.358328 -0.276316
v -0.383501 0.316595 0.276316
v -0.383501 0.316595 0.092105
v -0.383501 0.316595 -0.092105
v -0.383501 0.316595 -0.276316
v -0.361822 -0.358328 -0.276316
v -0.361822 -0.358328 -0.092105
v -0.361822 -0.358328 0.092105
v -0.361822 -0.355059 0.276316
v 0.383501 0.316595 -0.276316
v 0.383501 0.316595 -0.092105
v 0.383501 0.316595 0.092105
v 0.383501 0.316595 0.276316
v 0.248312 -0.373932 0.276316
v 0.248312 -0.403142 0.092105
v 0.248312 -0.403142 -0.092105
v 0.248312 -0.403142 -0.276316
v 0.086676 -0.373932 0.276316
v 0.086676 -0.403142 0.092105
v 0.086676 -0.403142 -0.092105
v 0.086676 -0.403142 -0.276316
v -0.074960 -0.373932 0.276316
v -0.074960 -0.403142 0.092105
v -0.074960 -0.403142 -0.092105
v -0.074960 -0.403142 -0.276316
v -0.236596 -0.373932 0.276316
v -0.230421 -0.396396 0.092105
v -0.230421 -0.396396 -0.092105
v -0.230421 -0.396396 -0.276316
v 0.248312 0.405038 -0.276316
v 0.248312 0.405038 -0.092105
v 0.248312 0.405038 0.112291
v 0.248312 0.405038 0.276316
v 0.086676 0.405038 -0.276316
v 0.086676 0.405038 -0.092105
v 0.086676 0.405038 0.112291
v 0.086676 0.405038 0.276316
v -0.074960 0.405038 -0.276316
v -0.074960 0.405038 -0.092105
v -0.074960 0.405038 0.112291
v -0.074960 0.405038 0.276316
v -0.236596 0.405038 -0.276316
v -0.236596 0.405038 -0.092105
v -0.236596 0.405038 0.112291
v -0.236596 0.405038 0.276316
v 0.404090 0.168400 0.460526
v 0.404090 0.081766 0.460526
v 0.404090 -0.079870 0.460526
v 0.404090 -0.213391 0.460526
v -0.404090 -0.207878 -0.439265
v -0.404090 -0.079870 -0.460526
v -0.404090 0.081766 -0.460526
v -0.404090 0.168400 -0.460526
v -0.404090 0.168400 0.460526
v -0.404090 0.081766 0.460526
v -0.404090 -0.079870 0.460526
v -0.404090 -0.213391 0.460526
v 0.404090 0.168400 -0.460526
v 0.404090 0.081766 -0.460526
v 0.404090 -0.079870 -0.460526
v 0.404090 -0.207878 -0.439265
v 0.248312 0.243402 0.460526
v 0.248312 0.081766 0.460526
v 0.248312 -0.079870 0.460526
v 0.248312 -0.213391 0.460526
v 0.086676 0.243402 0.460526
v 0.086676 0.081766 0.460526
v 0.086676 -0.079870 0.460526
v 0.086676 -0.213391 0.460526
v -0.074960 0.243402 0.460526
v -0.074960 0.081766 0.460526
v -0.074960 -0.079870 0.460526
v -0.074960 -0.213391 0.460526
v -0.236596 0.243402 0.460526
v -0.236596 0.081766 0.460526
v -0.236596 -0.079870 0.460526
v -0.236596 -0.213391 0.460526
v -0.236596 0.243402 -0.460526
v -0.236596 0.081766 -0.460526
v -0.236596 -0.079870 -0.460526
v -0.236596 -0.207878 -0.439265
v -0.074960 0.243402 -0.460526
v -0.074960 0.081766 -0.460526
v -0.074960 -0.079870 -0.460526
v -0.074960 -0.207878 -0.439265
v 0.086676 0.243402 -0.460526
v 0.086676 0.081766 -0.460526
v 0.086676 -0.079870 -0.460526
v 0.086676 -0.207878 -0.439265
v 0.248312 0.243402 -0.460526
v 0.248312 0.081766 -0.460526
v 0.248312 -0.079870 -0.460526
v 0.248312 -0.207878 -0.439265
v 0.404090 0.168400 -0.276316
v 0.404090 0.081766 -0.276316
v 0.404090 -0.079870 -0.276316
v 0.404090 -0.241506 -0.276316
v 0.404090 0.168400 -0.092105
v 0.404090 0.081766 -0.092105
v 0.404090 -0.079870 -0.092105
v 0.404090 -0.241506 -0.092105
v 0.404090 0.168400 0.092105
v 0.404090 0.081766 0.092105
v 0.404090 -0.079870 0.092105
v 0.404090 -0.241506 0.092105
v 0.404090 0.168400 0.276316
v 0.404090 0.081766 0.276316
v 0.404090 -0.079870 0.276316
v 0.404090 -0.241506 0.276316
v -0.404090 0.168400 0.276316
v -0.404090 0.081766 0.276316
v -0.404090 -0.079870 0.276316
v -0.404090 -0.241506 0.276316
v -0.404090 0.168400 0.092105
v -0.404090 0.081766 0.092105
v -0.404090 -0.079870 0.092105
v -0.404090 -0.241506 0.092105
v -0.404090 0.168400 -0.092105
v -0.404090 0.081766 -0.092105
v -0.404090 -0.079870 -0.092105
v -0.404090 -0.241506 -0.092105
v -0.404090 0.168400 -0.276316
v -0.404090 0.081766 -0.276316
v -0.404090 -0.079870 -0.276316
v -0.404090 -0.241506 -0.276316
v 0.167494 0.751677 0.015614
v -0.155778 0.751677 0.015614
v -0.074960 -0.359826 0.368421
v -0.074960 -0.289732 0.447110
v -0.236596 -0.289732 0.447110
v 0.361822 -0.350376 0.368421
v 0.248312 -0.289732 0.447110
v 0.086676 -0.359826 0.368421
v -0.389296 -0.289732 0.447109
v -0.361822 -0.350376 0.368421
v -0.236596 -0.359826 0.368421
v 0.389296 -0.289732 0.447110
v 0.248312 -0.359826 0.368421
v 0.086676 -0.289732 0.447110
v -0.361822 -0.358354 0.184210
v 0.361822 -0.358354 0.184210
v 0.086676 -0.389982 0.184210
v -0.074960 -0.389982 0.184210
v -0.230421 -0.383236 0.184210
v 0.248312 -0.389982 0.184210
v -0.236596 -0.282867 -0.416451
v 0.389296 -0.282867 -0.416450
v 0.361822 -0.346579 -0.348388
v 0.086676 -0.282867 -0.416451
v 0.248312 -0.378206 -0.348388
v 0.248312 -0.282867 -0.416451
v -0.361822 -0.346579 -0.348388
v 0.086676 -0.378206 -0.348388
v -0.074960 -0.378206 -0.348388
v -0.074960 -0.282867 -0.416451
v -0.230421 -0.371460 -0.348388
v -0.389296 -0.282867 -0.416451
v 0.086676 -0.160688 -0.449898
v -0.404090 -0.160688 -0.449898
v 0.404090 -0.160688 -0.449898
v -0.236596 -0.160688 -0.449898
v -0.074960 -0.160688 -0.449898
v 0.248312 -0.160688 -0.449898
v 0.147289 0.643946 0.114780
v 0.127085 0.564310 0.176571
v 0.106880 0.484674 0.227157
v 0.187699 0.643946 0.114780
v 0.207903 0.564310 0.176571
v 0.228108 0.484674 0.227157
v -0.175983 0.643946 0.114780
v -0.196187 0.564310 0.176571
v -0.216392 0.484674 0.227157
v -0.135574 0.643946 0.114780
v -0.115369 0.564310 0.176571
v -0.095165 0.484674 0.227157
v 0.228108 0.484674 0.091800
v 0.207903 0.564310 0.072425
v 0.187698 0.643946 0.048469
v -0.095165 0.484674 0.091800
v -0.115369 0.564310 0.072425
v -0.135574 0.643946 0.048469
v 0.107582 0.487438 0.092599
v 0.128488 0.569839 0.074024
v 0.147991 0.646710 0.049268
v -0.216392 0.484674 0.091800
v -0.196187 0.564310 0.072425
v -0.175923 0.644181 0.048537
v 0.398933 0.241803 -0.092105
v 0.326201 0.370656 0.276316
v 0.326201 0.336869 -0.421112
v 0.326201 0.370656 0.102198
v -0.398933 0.241803 -0.460526
v 0.326201 0.370656 0.460526
v 0.326201 0.370656 -0.092105
v 0.398933 0.241803 0.092105
v 0.326201 0.370656 -0.276316
v 0.398933 0.241803 -0.460526
v -0.398933 0.241803 0.092105
v -0.320343 0.377458 0.460526
v -0.320343 0.343671 -0.421112
v -0.320343 0.377458 0.276316
v 0.398933 0.241803 0.460526
v 0.398933 0.241803 -0.276316
v -0.320343 0.377458 0.102198
v -0.320343 0.377458 -0.092105
v -0.398933 0.241803 0.460526
v -0.320343 0.377458 -0.276316
v -0.398933 0.241803 -0.276316
v 0.398933 0.241803 0.276316
v -0.398933 0.241803 0.276316
v -0.398933 0.241803 -0.092105
v -0.236596 0.296063 -0.450240
v -0.074960 0.296063 -0.450240
v 0.248312 0.296063 -0.450240
v 0.086676 0.296063 -0.450240
v 0.248312 0.387826 -0.368421
v -0.320343 0.377458 -0.368421
v 0.326201 0.370656 -0.368421
v 0.086676 0.387826 -0.368421
v -0.383501 0.316595 -0.368421
v -0.236596 0.387826 -0.368421
v -0.074960 0.387826 -0.368421
v 0.383501 0.316595 -0.368421
v -0.389296 -0.322324 -0.276316
v -0.389296 -0.307719 0.276316
v 0.389296 -0.322324 0.092105
v -0.389296 -0.322324 0.092105
v 0.389296 -0.307719 0.276316
v 0.389296 -0.322324 -0.276316
v -0.389296 -0.322324 -0.092105
v 0.389296 -0.322324 -0.092105
v 0.326201 -0.403142 -0.276316
v 0.326201 -0.403142 -0.092105
v 0.326201 -0.359826 0.368421
v -0.320343 -0.384113 0.184210
v 0.326201 -0.403142 0.092105
v 0.326201 -0.389982 0.184210
v -0.320343 -0.372337 -0.348388
v 0.326201 -0.373932 0.276316
v 0.326201 -0.378206 -0.348388
v 0.326201 -0.327233 0.428686
v -0.320343 -0.327233 0.428686
v -0.320343 -0.359826 0.368421
v 0.326201 -0.326961 -0.392841
v -0.320343 -0.326961 -0.392841
v -0.320343 -0.382000 -0.092105
v -0.320343 -0.382000 0.092105
v -0.320343 -0.382000 -0.276316
v -0.320343 -0.368062 0.276316
vn -0.3080 0.9352 -0.1748
vn -0.9975 0.0701 -0.0000
vn -0.0000 -0.0000 -1.0000
vn -0.0691 -0.9861 0.1510
vn -0.0000 -0.0000 1.0000
vn 0.9975 0.0701 -0.0000
vn 0.4640 -0.8757 0.1341
vn -0.0000 -0.9885 0.1514
vn -0.0000 0.1917 -0.9815
vn 0.6863 0.7274 -0.0000
vn -0.0000 0.9830 -0.1837
vn -0.0000 1.0000 -0.0000
vn -0.0000 0.5253 0.8509
vn -0.0000 -0.7067 -0.7075
vn -0.0434 -0.9991 -0.0000
vn -0.0429 -0.9890 0.1413
vn -0.0000 -0.6553 -0.7554
vn -0.0000 -1.0000 -0.0000
vn -0.0000 -0.9899 0.1414
vn -0.0000 -0.9149 -0.4037
vn 0.7828 -0.6222 -0.0000
vn 0.7798 -0.6198 0.0886
vn -0.0000 -0.6998 -0.7143
vn -0.1581 -0.9874 -0.0000
vn -0.1565 -0.9777 0.1397
vn -0.3128 0.9498 -0.0000
vn -0.7950 -0.6066 -0.0000
vn -1.0000 -0.0000 -0.0000
vn -0.7950 -0.6066 -0.0002
vn -0.8646 -0.5018 0.0255
vn 0.8648 -0.5019 0.0180
vn 1.0000 -0.0000 -0.0000
vn 0.7950 -0.6066 -0.0000
vn 0.7911 -0.6037 -0.0984
vn -0.0000 -0.4720 -0.8816
vn -0.0000 -0.2198 -0.9755
vn -0.0000 -0.4409 0.8975
vn 0.8476 0.2340 -0.4763
vn -0.7463 -0.6089 -0.2687
vn -0.9693 0.2459 -0.0000
vn -0.0000 -0.2492 -0.9685
vn 0.9693 0.2459 -0.0000
vn -0.0000 -0.1731 0.9849
vn -0.0000 -0.8796 0.4757
vn -0.0000 -0.9335 0.3585
vn -0.0000 -0.9852 0.1717
vn -0.0000 -0.9949 0.1005
vn -0.2990 -0.9537 0.0341
vn -0.5226 -0.8415 -0.1372
vn -0.0000 -0.9450 -0.3270
vn -0.0000 -0.2911 -0.9567
vn -0.0410 -0.9442 -0.3267
vn -0.0000 -0.1304 -0.9915
vn 0.9829 0.1843 -0.0000
vn -0.0119 -0.2392 -0.9709
vn -0.0399 -0.2971 -0.9540
vn -0.0400 -0.2983 -0.9536
vn -0.9829 0.1841 -0.0002
vn -0.0000 -0.2364 -0.9717
vn -0.0000 -0.2881 -0.9576
vn -0.0033 -0.2923 -0.9563
vn -0.0000 0.5362 0.8441
vn -0.0000 0.6130 0.7901
vn -0.0000 0.6773 0.7358
vn -0.9833 0.1818 -0.0029
vn 0.4038 0.9148 -0.0000
vn 0.9794 0.2021 -0.0000
vn 0.9901 0.1245 -0.0648
vn 0.3980 0.9018 -0.1685
vn -0.6939 0.7201 -0.0000
vn -0.9901 0.1245 -0.0648
vn -0.9794 0.2021 -0.0000
vn -0.0000 0.5031 -0.8642
vn 0.2160 0.2596 -0.9413
vn -0.1996 0.2314 -0.9522
vn -0.6077 0.7045 -0.3664
vn -0.0000 0.7839 -0.6208
vn -0.0244 0.8416 -0.5396
vn 0.6219 0.6592 -0.4227
vn 0.1703 0.7725 -0.6118
vn 0.9759 -0.2181 -0.0000
vn -0.9836 -0.1800 0.0143
vn -0.9837 -0.1801 -0.0000
vn 0.9824 -0.1798 -0.0506
vn 0.9803 -0.1952 0.0298
vn 0.9837 -0.1801 -0.0000
vn -0.9777 -0.2058 -0.0425
vn -0.9757 -0.2180 0.0230
vn -0.0000 -0.9149 -0.4038
vn -0.4957 -0.8685 -0.0000
vn -0.0689 -0.9828 0.1713
vn 0.4679 -0.8832 0.0316
vn -0.4957 -0.8685 -0.0002
vn -0.1496 -0.9344 -0.3233
vn 0.7653 -0.6083 -0.2105
vn -0.2981 -0.9508 0.0850
vn -0.1229 0.9924 -0.0000
vn 0.0020 0.1917 -0.9815
vn -0.0000 -0.9960 0.0891
vn 0.2561 -0.9654 0.0491
vn -0.0019 0.1917 -0.9815
vn -0.0284 -0.6550 -0.7551
vn 0.5029 -0.5664 -0.6529
vn 0.6640 -0.7478 -0.0002
vn 0.0069 -0.7062 -0.7079
vn 0.0097 -0.9997 -0.0229
vn -0.8648 -0.5019 0.0180
vn -0.8438 -0.5350 0.0424
vn -0.8476 0.2340 -0.4763
vn -0.8844 -0.4641 0.0489
vn 0.7950 -0.6066 -0.0002
vn 0.8438 -0.5350 0.0424
vn 0.7463 -0.6089 -0.2687
vn 0.8420 -0.5193 -0.1462
vn 0.8646 -0.5018 0.0255
vn 0.8844 -0.4641 0.0489
vn -0.7911 -0.6037 -0.0984
vn -0.8420 -0.5193 -0.1462
vn -0.0117 -0.2296 -0.9732
vn -0.1965 -0.8625 0.4664
vn -0.0427 -0.9843 0.1715
vn -0.5219 -0.8404 0.1464
vn -0.4923 -0.8627 -0.1157
vn -0.0344 -0.2115 -0.9768
vn -0.0033 -0.2858 -0.9583
vn 0.9508 0.3097 -0.0000
vn 0.2153 0.9766 -0.0000
vn -0.9508 0.3097 -0.0000
vn 0.1897 0.6636 -0.7236
vn 0.0595 0.5022 -0.8627
vn -0.0146 0.5031 -0.8641
vn -0.1754 0.6627 -0.7281
vn -0.6300 0.6537 -0.4192
vn -0.0966 0.7803 -0.6179
vn 0.5939 0.7138 -0.3712
vn 0.0992 0.8376 -0.5371
vn 0.9836 -0.1800 0.0143
vn -0.9759 -0.2181 -0.0000
vn 0.9777 -0.2058 -0.0425
vn 0.9757 -0.2180 0.0230
vn -0.9824 -0.1798 -0.0506
vn -0.9803 -0.1952 0.0298
vn -0.3986 -0.6418 -0.6551
vn 0.0097 -0.9948 0.1011
vn 0.6584 -0.7415 0.1292
vn -0.5275 -0.8494 -0.0195
vn 0.0097 -0.9911 -0.1329
vn 0.6591 -0.7423 -0.1210
vn 0.2272 -0.8566 0.4633
vn -0.2219 -0.9738 0.0495
vt 0.038998 0.086656
vt 0.070404 0.052187
vt 0.071921 0.087506
vt 0.073786 0.644871
vt 0.005779 0.616547
vt 0.072771 0.614361
vt 0.217476 0.937498
vt 0.155115 0.939657
vt 0.151601 0.909391
vt 0.417699 0.303540
vt 0.384327 0.267710
vt 0.419558 0.269310
vt 0.375752 0.624946
vt 0.369443 0.593939
vt 0.436703 0.594786
vt 0.693976 0.945019
vt 0.627803 0.912686
vt 0.694813 0.914518
vt 0.669748 0.648152
vt 0.637436 0.662309
vt 0.637620 0.595337
vt 0.570648 0.595153
vt 0.570464 0.662125
vt 0.503676 0.594970
vt 0.503492 0.661942
vt 0.672192 0.280194
vt 0.653937 0.312369
vt 0.655227 0.278144
vt 0.621550 0.311737
vt 0.554786 0.275356
vt 0.622460 0.277347
vt 0.553594 0.309786
vt 0.487140 0.272650
vt 0.485592 0.307058
vt 0.485505 0.924246
vt 0.418306 0.928192
vt 0.486162 0.893763
vt 0.419364 0.950352
vt 0.351310 0.931292
vt 0.352327 0.953406
vt 0.284398 0.934383
vt 0.285425 0.956498
vt 0.034353 0.347386
vt 0.070402 0.318416
vt 0.067913 0.350556
vt 0.039701 0.285251
vt 0.071481 0.219512
vt 0.072267 0.284470
vt 0.037466 0.219899
vt 0.071475 0.153116
vt 0.037285 0.152908
vt 0.272680 0.153380
vt 0.340921 0.085582
vt 0.340626 0.153794
vt 0.922262 0.231459
vt 0.982158 0.197591
vt 0.951190 0.256128
vt 0.138072 0.153085
vt 0.212433 0.085649
vt 0.212514 0.153149
vt 0.137732 0.086379
vt 0.272149 0.221085
vt 0.339949 0.221861
vt 0.212119 0.220462
vt 0.137942 0.219771
vt 0.271216 0.288701
vt 0.338933 0.289759
vt 0.774099 0.167757
vt 0.709803 0.192737
vt 0.709004 0.154603
vt 0.211187 0.287742
vt 0.137185 0.286383
vt 0.269994 0.357303
vt 0.338341 0.325462
vt 0.337762 0.358491
vt 0.206792 0.323089
vt 0.270609 0.324312
vt 0.202298 0.355868
vt 0.136099 0.321264
vt 0.134845 0.353810
vt 0.497317 0.015730
vt 0.432134 0.040627
vt 0.428988 0.015621
vt 0.493025 0.137489
vt 0.432156 0.068401
vt 0.495878 0.070873
vt 0.490236 0.204258
vt 0.428701 0.134694
vt 0.488706 0.238253
vt 0.425789 0.201558
vt 0.563909 0.045461
vt 0.565425 0.018502
vt 0.559695 0.140137
vt 0.562407 0.073588
vt 0.557190 0.206956
vt 0.630272 0.050185
vt 0.633423 0.023593
vt 0.626136 0.142534
vt 0.627985 0.077473
vt 0.623912 0.209097
vt 0.555986 0.240962
vt 0.678616 0.048829
vt 0.665881 0.028832
vt 0.680765 0.030586
vt 0.682501 0.143624
vt 0.658285 0.079202
vt 0.680994 0.075971
vt 0.679604 0.211832
vt 0.658291 0.143312
vt 0.655700 0.243502
vt 0.655731 0.209708
vt 0.961982 0.952241
vt 0.895760 0.920021
vt 0.962765 0.921740
vt 0.894962 0.950531
vt 0.828778 0.918214
vt 0.827944 0.948700
vt 0.761807 0.916367
vt 0.760967 0.946860
vt 0.396338 0.041213
vt 0.393580 0.017530
vt 0.395533 0.066332
vt 0.390911 0.132768
vt 0.423967 0.235436
vt 0.387924 0.200250
vt 0.341752 0.635624
vt 0.273706 0.607461
vt 0.340691 0.605129
vt 0.274767 0.637955
vt 0.206728 0.609791
vt 0.207783 0.640281
vt 0.139759 0.612097
vt 0.140801 0.642588
vt 0.272813 0.085508
vt 0.340947 0.048348
vt 0.272750 0.048385
vt 0.208451 0.048687
vt 0.137032 0.049692
vt 0.132699 0.408574
vt 0.065293 0.392582
vt 0.131987 0.389877
vt 0.136262 0.509309
vt 0.067366 0.444883
vt 0.133940 0.442501
vt 0.138537 0.576210
vt 0.069410 0.511547
vt 0.071584 0.578459
vt 0.199344 0.406159
vt 0.198718 0.387472
vt 0.203133 0.506951
vt 0.200686 0.440035
vt 0.205482 0.573899
vt 0.232133 0.386410
vt 0.270107 0.504552
vt 0.267714 0.437449
vt 0.272456 0.571557
vt 0.266776 0.409175
vt 0.265731 0.386303
vt 0.299354 0.386212
vt 0.335217 0.446908
vt 0.339441 0.569226
vt 0.337115 0.502242
vt 0.700321 0.716059
vt 0.701204 0.693148
vt 0.734860 0.693019
vt 0.764697 0.813492
vt 0.699578 0.744381
vt 0.766718 0.746540
vt 0.762802 0.880466
vt 0.697667 0.811559
vt 0.695804 0.878602
vt 0.834647 0.714670
vt 0.768359 0.693856
vt 0.835283 0.695926
vt 0.831609 0.815422
vt 0.833557 0.748648
vt 0.829759 0.882325
vt 0.900865 0.716988
vt 0.901820 0.698460
vt 0.898422 0.817232
vt 0.900074 0.750607
vt 0.896699 0.884123
vt 0.927838 0.703927
vt 0.962270 0.785231
vt 0.963685 0.885828
vt 0.965347 0.818821
vt 0.274173 0.714901
vt 0.206358 0.697870
vt 0.273230 0.694745
vt 0.276605 0.766919
vt 0.208798 0.750137
vt 0.275675 0.747015
vt 0.281294 0.867479
vt 0.211293 0.803700
vt 0.278177 0.800584
vt 0.214396 0.870584
vt 0.341051 0.711767
vt 0.340104 0.691610
vt 0.343491 0.763789
vt 0.342557 0.743883
vt 0.348201 0.864364
vt 0.345069 0.797457
vt 0.407931 0.708623
vt 0.406982 0.688466
vt 0.410380 0.760645
vt 0.409442 0.740739
vt 0.415126 0.861221
vt 0.411966 0.794312
vt 0.441633 0.686833
vt 0.479687 0.757375
vt 0.478749 0.737472
vt 0.484449 0.857916
vt 0.481278 0.791037
vt 0.504283 0.373698
vt 0.437357 0.356594
vt 0.504329 0.356777
vt 0.504043 0.461025
vt 0.437223 0.405519
vt 0.504195 0.405703
vt 0.503859 0.527998
vt 0.437071 0.460842
vt 0.436887 0.527814
vt 0.571255 0.373882
vt 0.571301 0.356961
vt 0.571015 0.461209
vt 0.571167 0.405886
vt 0.570831 0.528181
vt 0.638227 0.374065
vt 0.638273 0.357145
vt 0.637987 0.461393
vt 0.638139 0.406070
vt 0.637803 0.528365
vt 0.670546 0.357233
vt 0.702532 0.461570
vt 0.702684 0.406247
vt 0.702348 0.528542
vt 0.702250 0.564438
vt 0.637670 0.722141
vt 0.644703 0.706768
vt 0.667534 0.693303
vt 0.632073 0.754337
vt 0.630596 0.809738
vt 0.628780 0.876769
vt 0.374041 0.373341
vt 0.374087 0.356420
vt 0.402657 0.356498
vt 0.367823 0.405329
vt 0.367672 0.460651
vt 0.367390 0.563520
vt 0.367488 0.527623
vt 0.148973 0.720747
vt 0.159399 0.700062
vt 0.174135 0.699375
vt 0.209726 0.770039
vt 0.144351 0.753141
vt 0.146847 0.806696
vt 0.149948 0.873557
vt 0.015920 0.428336
vt 0.022863 0.406145
vt 0.039195 0.398225
vt 0.002422 0.513627
vt 0.005248 0.479974
vt 0.004602 0.580642
vt 0.845639 0.321239
vt 0.850072 0.268028
vt 0.883481 0.316779
vt 0.788327 0.241113
vt 0.810509 0.214448
vt 0.758480 0.202468
vt 0.945470 0.187674
vt 0.969116 0.139899
vt 0.934445 0.140234
vt 0.952577 0.075286
vt 0.908700 0.044360
vt 0.936562 0.018070
vt 0.484398 0.333247
vt 0.416122 0.329765
vt 0.365241 0.301746
vt 0.380745 0.327295
vt 0.351842 0.325046
vt 0.437310 0.373514
vt 0.621042 0.337928
vt 0.552694 0.335986
vt 0.696642 0.374226
vt 0.623221 0.242958
vt 0.366758 0.233475
vt 0.365951 0.267568
vt 0.375613 0.064139
vt 0.377356 0.036965
vt 0.660350 0.053816
vt 0.471113 0.705646
vt 0.496737 0.042738
vt 0.207299 0.718026
vt 0.145279 0.773042
vt 0.743163 0.237307
vt 0.765467 0.267794
vt 0.728312 0.274804
vt 0.741848 0.295248
vt 0.709004 0.330011
vt 0.817081 0.281875
vt 0.783744 0.296159
vt 0.751077 0.309603
vt 0.908888 0.177493
vt 0.899502 0.140991
vt 0.870490 0.165219
vt 0.863142 0.141799
vt 0.815430 0.145250
vt 0.890757 0.108020
vt 0.921915 0.091692
vt 0.858774 0.125051
vt 0.710682 0.231079
vt 0.711764 0.271766
vt 0.807555 0.325385
vt 0.767322 0.327425
vt 0.880919 0.071110
vt 0.853714 0.101157
vt 0.893156 0.206548
vt 0.862361 0.179960
vt 0.827073 0.980343
vt 0.927554 0.983172
vt 0.947125 0.972526
vt 0.038740 0.053779
vt 0.067744 0.015684
vt 0.041408 0.677732
vt 0.021764 0.667216
vt 0.760099 0.978506
vt 0.693110 0.976673
vt 0.626108 0.974845
vt 0.626971 0.943190
vt 0.275866 0.669604
vt 0.208878 0.671929
vt 0.141889 0.674239
vt 0.074894 0.676537
vt 0.340918 0.011293
vt 0.272636 0.011371
vt 0.204346 0.011750
vt 0.136040 0.012850
vt 0.353387 0.976656
vt 0.218490 0.959626
vt 0.187193 0.981108
vt 0.161562 0.963920
vt 0.286509 0.979750
vt 0.219620 0.982889
vt 0.454990 0.971402
vt 0.481288 0.949000
vt 0.033382 0.019375
vt 0.016450 0.049631
vt 0.011293 0.015097
vt 0.011293 0.152615
vt 0.012977 0.084796
vt 0.016267 0.320611
vt 0.038585 0.316071
vt 0.014167 0.287657
vt 0.011487 0.220391
vt 0.066315 0.411179
vt 0.951247 0.733782
vt 0.767840 0.712592
vt 0.008589 0.460321
vt 0.329389 0.414794
vt 0.376179 0.018649
vt 0.371012 0.131645
vt 0.387045 0.233698
vt 0.675607 0.246053
vt 0.367922 0.199478
vt 0.653974 0.338271
vt 0.669210 0.314181
vt 0.680487 0.338564
vt 0.382957 0.301542
vt 0.006771 0.647030
vt 0.436520 0.661758
vt 0.401851 0.650235
vt 0.700030 0.594846
vt 0.693551 0.625817
vt 0.322254 0.399494
vt 0.944173 0.711709
vt 0.958801 0.765634
vt 0.458795 0.686025
vt 0.696688 0.357305
vt 0.894061 0.982200
vt 0.342853 0.667273
vt 0.420338 0.973665
vt 0.012059 0.351868
s 0
usemtl Material
f 248/1/1 234/2/1 69/3/1
f 235/4/2 80/5/2 149/6/2
f 117/7/3 224/8/3 85/9/3
f 163/10/4 276/11/4 53/12/4
f 3/13/5 233/14/5 101/15/5
f 236/16/6 73/17/6 133/18/6
f 220/19/5 13/20/5 89/21/5
f 13/20/5 93/22/5 89/21/5
f 14/23/5 97/24/5 93/22/5
f 15/25/5 101/15/5 97/24/5
f 25/26/7 261/27/7 266/28/7
f 165/29/8 45/30/8 41/31/8
f 160/32/8 49/33/8 45/30/8
f 155/34/8 53/12/8 49/33/8
f 219/35/3 105/36/3 80/37/3
f 239/38/9 109/39/9 105/36/9
f 240/40/9 113/41/9 109/39/9
f 242/42/9 117/7/9 113/41/9
f 250/43/10 223/44/10 37/45/10
f 243/46/11 61/47/11 57/48/11
f 246/49/11 65/50/11 61/47/11
f 249/51/11 69/3/11 65/50/11
f 68/52/12 16/53/12 15/54/12
f 202/55/13 72/56/13 68/57/13
f 66/58/12 71/59/12 67/60/12
f 65/50/12 70/61/12 66/58/12
f 64/62/12 15/54/12 14/63/12
f 63/64/12 68/52/12 64/62/12
f 62/65/12 67/60/12 63/64/12
f 61/47/12 66/58/12 62/65/12
f 60/66/12 14/63/12 13/67/12
f 60/68/13 193/69/13 64/70/13
f 59/71/12 62/65/12 63/64/12
f 57/48/12 62/65/12 58/72/12
f 40/73/10 220/74/10 1/75/10
f 40/73/10 218/76/10 216/77/10
f 39/78/10 221/79/10 218/76/10
f 37/45/10 221/79/10 38/80/10
f 11/81/14 183/82/14 12/83/14
f 51/84/15 56/85/15 52/86/15
f 50/87/15 55/88/15 51/84/15
f 170/89/16 54/90/16 50/87/16
f 180/91/17 11/81/17 10/92/17
f 47/93/18 52/86/18 48/94/18
f 46/95/18 51/84/18 47/93/18
f 46/95/19 170/89/19 50/87/19
f 177/96/17 10/92/17 9/97/17
f 43/98/18 48/94/18 44/99/18
f 42/100/18 47/93/18 43/98/18
f 42/100/19 169/101/19 46/95/19
f 175/102/20 271/103/20 6/104/20
f 27/105/21 259/106/21 28/107/21
f 26/108/21 260/109/21 27/105/21
f 26/108/22 264/110/22 263/111/22
f 224/112/6 121/113/6 85/114/6
f 230/115/6 125/116/6 121/113/6
f 215/117/6 129/118/6 125/116/6
f 222/119/6 133/18/6 129/118/6
f 12/83/23 265/120/23 272/121/23
f 55/88/24 275/122/24 56/85/24
f 54/90/24 273/123/24 55/88/24
f 171/124/25 274/125/25 54/90/25
f 233/126/2 137/127/2 81/128/2
f 237/129/2 141/130/2 137/127/2
f 225/131/2 145/132/2 141/130/2
f 238/133/2 149/6/2 145/132/2
f 72/134/26 226/135/26 16/53/26
f 71/59/26 228/136/26 72/134/26
f 70/61/26 231/137/26 71/59/26
f 69/3/26 232/138/26 70/61/26
f 257/139/27 33/140/27 34/141/27
f 147/142/28 152/143/28 148/144/28
f 146/145/28 151/146/28 147/142/28
f 145/132/28 150/147/28 146/145/28
f 254/148/27 34/141/27 35/149/27
f 143/150/28 148/144/28 144/151/28
f 142/152/28 147/142/28 143/150/28
f 141/130/28 146/145/28 142/152/28
f 254/148/29 35/149/29 167/153/29
f 139/154/28 144/151/28 140/155/28
f 138/156/28 143/150/28 139/154/28
f 137/127/28 142/152/28 138/156/28
f 252/157/30 36/158/30 162/159/30
f 84/160/28 139/154/28 140/155/28
f 82/161/28 139/154/28 83/162/28
f 81/128/28 138/156/28 82/161/28
f 255/163/31 25/164/31 168/165/31
f 131/166/32 136/167/32 132/168/32
f 130/169/32 135/170/32 131/166/32
f 129/118/32 134/171/32 130/169/32
f 258/172/33 26/173/33 27/174/33
f 127/175/32 132/168/32 128/176/32
f 126/177/32 131/166/32 127/175/32
f 125/116/32 130/169/32 126/177/32
f 256/178/33 27/174/33 28/179/33
f 123/180/32 128/176/32 124/181/32
f 122/182/32 127/175/32 123/180/32
f 121/113/32 126/177/32 122/182/32
f 256/178/34 28/179/34 175/183/34
f 187/184/32 123/180/32 124/181/32
f 86/185/32 123/180/32 87/186/32
f 85/114/32 122/182/32 86/185/32
f 176/187/35 9/188/35 10/189/35
f 185/190/36 120/191/36 116/192/36
f 114/193/3 119/194/3 115/195/3
f 113/41/3 118/196/3 114/193/3
f 182/197/35 10/189/35 11/198/35
f 189/199/36 116/192/36 112/200/36
f 110/201/3 115/195/3 111/202/3
f 109/39/3 114/193/3 110/201/3
f 173/203/35 11/198/35 12/204/35
f 188/205/36 112/200/36 108/206/36
f 106/207/3 111/202/3 107/208/3
f 105/36/3 110/201/3 106/207/3
f 173/203/35 12/204/35 272/209/35
f 186/210/36 108/206/36 77/211/36
f 79/212/3 107/208/3 78/213/3
f 80/37/3 106/207/3 79/212/3
f 156/214/37 21/215/37 22/216/37
f 99/217/5 104/218/5 100/219/5
f 98/220/5 103/221/5 99/217/5
f 97/24/5 102/222/5 98/220/5
f 166/223/37 22/216/37 23/224/37
f 95/225/5 100/219/5 96/226/5
f 94/227/5 99/217/5 95/225/5
f 93/22/5 98/220/5 94/227/5
f 159/228/37 23/224/37 24/229/37
f 91/230/5 96/226/5 92/231/5
f 90/232/5 95/225/5 91/230/5
f 89/21/5 94/227/5 90/232/5
f 159/228/37 24/229/37 268/233/37
f 75/234/5 92/231/5 76/235/5
f 74/236/5 91/230/5 75/234/5
f 73/237/5 90/232/5 74/236/5
f 164/238/38 2/239/38 158/240/38
f 135/170/32 76/241/32 136/167/32
f 134/171/32 75/242/32 135/170/32
f 133/18/32 74/243/32 134/171/32
f 161/244/37 4/245/37 269/246/37
f 103/221/5 84/247/5 104/218/5
f 102/222/5 83/248/5 103/221/5
f 102/222/5 81/249/5 82/250/5
f 174/251/35 6/252/35 271/253/35
f 190/254/36 88/255/36 120/191/36
f 118/196/3 87/256/3 119/194/3
f 118/196/3 85/9/3 86/257/3
f 184/258/39 8/259/39 179/260/39
f 151/146/28 78/261/28 186/262/28
f 150/147/28 78/261/28 151/146/28
f 149/6/28 79/263/28 150/147/28
f 193/264/40 63/265/40 64/266/40
f 63/265/41 203/267/41 59/268/41
f 59/268/42 196/269/42 60/68/42
f 199/270/40 71/271/40 72/56/40
f 212/272/41 67/273/41 71/271/41
f 67/273/42 202/274/42 68/275/42
f 166/223/43 100/219/43 156/214/43
f 163/10/44 22/276/44 21/277/44
f 162/278/45 269/279/45 4/280/45
f 159/228/43 96/226/43 166/223/43
f 161/244/43 104/218/43 84/247/43
f 156/214/43 104/218/43 157/281/43
f 261/27/44 24/282/44 165/29/44
f 160/32/44 24/282/44 23/283/44
f 164/284/43 92/231/43 159/228/43
f 160/32/44 22/276/44 155/34/44
f 172/285/46 45/30/46 169/101/46
f 170/89/46 45/30/46 49/33/46
f 171/124/47 49/33/47 53/12/47
f 167/286/48 276/11/48 36/287/48
f 264/110/46 41/31/46 172/285/46
f 265/120/49 33/288/49 179/289/49
f 267/290/50 44/99/50 177/96/50
f 184/291/51 108/206/51 173/203/51
f 174/251/51 120/191/51 88/255/51
f 176/187/51 112/200/51 116/192/51
f 181/292/52 56/85/52 183/82/52
f 180/91/50 52/86/50 181/292/50
f 182/197/51 108/206/51 112/200/51
f 178/293/51 116/192/51 120/191/51
f 177/96/50 48/94/50 180/91/50
f 190/254/53 87/256/53 187/294/53
f 186/210/53 107/208/53 188/205/53
f 188/205/53 111/202/53 189/199/53
f 189/199/53 115/195/53 185/190/53
f 185/190/53 119/194/53 190/254/53
f 203/267/42 195/295/42 196/269/42
f 204/296/42 194/297/42 195/295/42
f 194/297/54 205/298/54 153/299/54
f 209/300/55 204/296/55 203/267/55
f 210/301/56 205/298/56 204/296/56
f 205/298/57 211/302/57 153/299/57
f 212/272/40 198/303/40 213/304/40
f 213/304/40 197/305/40 214/306/40
f 214/306/58 197/305/58 154/307/58
f 212/272/59 207/308/59 206/309/59
f 213/304/60 208/310/60 207/308/60
f 208/310/61 214/306/61 154/307/61
f 196/269/62 192/311/62 193/69/62
f 195/295/63 191/312/63 192/311/63
f 191/312/64 194/297/64 153/299/64
f 209/300/40 192/313/40 210/301/40
f 210/301/40 191/314/40 211/302/40
f 211/302/65 191/314/65 153/299/65
f 206/309/42 201/315/42 202/274/42
f 207/308/42 200/316/42 201/315/42
f 200/316/54 208/310/54 154/307/54
f 202/55/62 198/303/62 199/270/62
f 201/317/63 197/305/63 198/303/63
f 197/305/64 200/318/64 154/307/64
f 220/74/66 60/66/66 13/67/66
f 230/115/67 38/319/67 215/117/67
f 216/77/66 59/71/66 60/66/66
f 250/320/68 230/115/68 5/321/68
f 218/76/66 58/72/66 59/71/66
f 223/44/69 243/46/69 57/48/69
f 244/322/70 32/323/70 234/2/70
f 223/44/66 58/72/66 221/79/66
f 235/4/71 247/324/71 7/325/71
f 215/117/67 39/326/67 222/119/67
f 222/119/67 40/327/67 236/16/67
f 236/16/67 1/328/67 229/329/67
f 233/126/72 29/330/72 237/129/72
f 237/129/72 30/331/72 225/131/72
f 225/131/72 31/332/72 238/133/72
f 238/133/72 32/333/72 235/4/72
f 228/136/70 3/334/70 226/135/70
f 231/137/70 29/335/70 228/136/70
f 232/138/70 30/336/70 231/137/70
f 234/2/70 31/337/70 232/138/70
f 239/38/73 18/338/73 240/40/73
f 241/339/74 217/340/74 5/341/74
f 240/40/73 19/342/73 242/42/73
f 242/42/73 20/343/73 241/339/73
f 227/344/75 239/38/75 7/345/75
f 247/346/76 227/347/76 7/348/76
f 246/49/77 18/349/77 249/51/77
f 249/51/77 17/350/77 248/1/77
f 244/322/78 17/350/78 227/347/78
f 250/43/79 217/351/79 245/352/79
f 245/352/80 20/353/80 243/46/80
f 243/46/77 19/354/77 246/49/77
f 255/163/81 132/168/81 136/167/81
f 252/157/82 144/151/82 254/148/82
f 257/139/83 152/143/83 251/355/83
f 174/356/84 124/181/84 256/178/84
f 164/238/85 136/167/85 76/241/85
f 258/172/86 132/168/86 253/357/86
f 184/258/87 152/143/87 77/358/87
f 254/148/83 148/144/83 257/139/83
f 161/359/88 140/155/88 252/157/88
f 256/178/86 128/176/86 258/172/86
f 272/121/89 179/289/89 8/360/89
f 275/122/90 34/361/90 33/288/90
f 262/362/91 53/12/91 276/11/91
f 274/125/90 34/361/90 273/123/90
f 266/28/92 168/363/92 25/26/92
f 274/125/93 167/286/93 35/364/93
f 275/122/94 183/82/94 56/85/94
f 267/290/17 9/97/17 271/103/17
f 264/110/19 42/100/19 263/111/19
f 260/109/18 42/100/18 43/98/18
f 267/290/95 28/107/95 259/106/95
f 261/27/8 41/31/8 266/28/8
f 268/365/45 158/366/45 2/367/45
f 259/106/18 43/98/18 44/99/18
f 270/368/44 21/277/44 269/279/44
f 270/368/96 36/287/96 276/11/96
f 248/1/97 244/322/97 234/2/97
f 235/4/2 219/369/2 80/5/2
f 117/7/98 241/339/98 224/8/98
f 163/10/99 270/368/99 276/11/99
f 81/249/5 101/15/5 233/14/5
f 101/15/5 16/370/5 226/371/5
f 3/13/5 101/15/5 226/371/5
f 236/16/6 229/329/6 73/17/6
f 89/21/5 73/237/5 229/372/5
f 229/372/5 1/373/5 89/21/5
f 1/373/5 220/19/5 89/21/5
f 13/20/5 14/23/5 93/22/5
f 14/23/5 15/25/5 97/24/5
f 15/25/5 16/370/5 101/15/5
f 25/26/100 158/366/100 261/27/100
f 165/29/8 160/32/8 45/30/8
f 160/32/8 155/34/8 49/33/8
f 155/34/8 163/10/8 53/12/8
f 219/35/101 239/38/101 105/36/101
f 239/38/9 240/40/9 109/39/9
f 240/40/9 242/42/9 113/41/9
f 242/42/9 241/339/9 117/7/9
f 250/43/10 245/352/10 223/44/10
f 243/46/11 246/49/11 61/47/11
f 246/49/11 249/51/11 65/50/11
f 249/51/11 248/1/11 69/3/11
f 68/52/12 72/134/12 16/53/12
f 202/55/13 199/270/13 72/56/13
f 66/58/12 70/61/12 71/59/12
f 65/50/12 69/3/12 70/61/12
f 64/62/12 68/52/12 15/54/12
f 63/64/12 67/60/12 68/52/12
f 62/65/12 66/58/12 67/60/12
f 61/47/12 65/50/12 66/58/12
f 60/66/12 64/62/12 14/63/12
f 60/68/13 196/269/13 193/69/13
f 59/71/12 58/72/12 62/65/12
f 57/48/12 61/47/12 62/65/12
f 40/73/10 216/77/10 220/74/10
f 40/73/10 39/78/10 218/76/10
f 39/78/10 38/80/10 221/79/10
f 37/45/10 223/44/10 221/79/10
f 11/81/102 181/292/102 183/82/102
f 51/84/15 55/88/15 56/85/15
f 50/87/15 54/90/15 55/88/15
f 170/89/16 171/124/16 54/90/16
f 180/91/17 181/292/17 11/81/17
f 47/93/18 51/84/18 52/86/18
f 46/95/18 50/87/18 51/84/18
f 46/95/19 169/101/19 170/89/19
f 177/96/17 180/91/17 10/92/17
f 43/98/18 47/93/18 48/94/18
f 42/100/18 46/95/18 47/93/18
f 42/100/19 172/285/19 169/101/19
f 175/102/103 267/290/103 271/103/103
f 27/105/21 260/109/21 259/106/21
f 26/108/21 263/111/21 260/109/21
f 26/108/104 168/363/104 264/110/104
f 224/112/6 230/115/6 121/113/6
f 230/115/6 215/117/6 125/116/6
f 215/117/6 222/119/6 129/118/6
f 222/119/6 236/16/6 133/18/6
f 12/83/105 183/82/105 265/120/105
f 55/88/24 273/123/24 275/122/24
f 54/90/24 274/125/24 273/123/24
f 171/124/106 262/362/106 274/125/106
f 233/126/2 237/129/2 137/127/2
f 237/129/2 225/131/2 141/130/2
f 225/131/2 238/133/2 145/132/2
f 238/133/2 235/4/2 149/6/2
f 72/134/26 228/136/26 226/135/26
f 71/59/26 231/137/26 228/136/26
f 70/61/26 232/138/26 231/137/26
f 69/3/26 234/2/26 232/138/26
f 257/139/27 251/355/27 33/140/27
f 147/142/28 151/146/28 152/143/28
f 146/145/28 150/147/28 151/146/28
f 145/132/28 149/6/28 150/147/28
f 254/148/27 257/139/27 34/141/27
f 143/150/28 147/142/28 148/144/28
f 142/152/28 146/145/28 147/142/28
f 141/130/28 145/132/28 146/145/28
f 167/153/107 36/158/107 252/157/107
f 252/157/108 254/148/108 167/153/108
f 139/154/28 143/150/28 144/151/28
f 138/156/28 142/152/28 143/150/28
f 137/127/28 141/130/28 142/152/28
f 162/159/109 4/374/109 161/359/109
f 161/359/110 252/157/110 162/159/110
f 84/160/28 83/162/28 139/154/28
f 82/161/28 138/156/28 139/154/28
f 81/128/28 137/127/28 138/156/28
f 168/165/111 26/173/111 253/357/111
f 253/357/112 255/163/112 168/165/112
f 131/166/32 135/170/32 136/167/32
f 130/169/32 134/171/32 135/170/32
f 129/118/32 133/18/32 134/171/32
f 258/172/33 253/357/33 26/173/33
f 127/175/32 131/166/32 132/168/32
f 126/177/32 130/169/32 131/166/32
f 125/116/32 129/118/32 130/169/32
f 256/178/33 258/172/33 27/174/33
f 123/180/32 127/175/32 128/176/32
f 122/182/32 126/177/32 127/175/32
f 121/113/32 125/116/32 126/177/32
f 175/183/113 6/375/113 174/356/113
f 174/356/114 256/178/114 175/183/114
f 124/181/32 88/376/32 187/184/32
f 187/184/32 87/186/32 123/180/32
f 86/185/32 122/182/32 123/180/32
f 85/114/32 121/113/32 122/182/32
f 176/187/35 178/293/35 9/188/35
f 185/190/36 190/254/36 120/191/36
f 114/193/3 118/196/3 119/194/3
f 113/41/3 117/7/3 118/196/3
f 182/197/35 176/187/35 10/189/35
f 189/199/36 185/190/36 116/192/36
f 110/201/3 114/193/3 115/195/3
f 109/39/3 113/41/3 114/193/3
f 173/203/35 182/197/35 11/198/35
f 188/205/36 189/199/36 112/200/36
f 106/207/3 110/201/3 111/202/3
f 105/36/3 109/39/3 110/201/3
f 272/209/35 8/377/35 184/291/35
f 184/291/35 173/203/35 272/209/35
f 186/210/36 188/205/36 108/206/36
f 79/212/3 106/207/3 107/208/3
f 80/37/3 105/36/3 106/207/3
f 156/214/37 157/281/37 21/215/37
f 99/217/5 103/221/5 104/218/5
f 98/220/5 102/222/5 103/221/5
f 97/24/5 101/15/5 102/222/5
f 166/223/37 156/214/37 22/216/37
f 95/225/5 99/217/5 100/219/5
f 94/227/5 98/220/5 99/217/5
f 93/22/5 97/24/5 98/220/5
f 159/228/37 166/223/37 23/224/37
f 91/230/5 95/225/5 96/226/5
f 90/232/5 94/227/5 95/225/5
f 89/21/5 93/22/5 94/227/5
f 268/233/37 2/378/37 164/284/37
f 164/284/37 159/228/37 268/233/37
f 75/234/5 91/230/5 92/231/5
f 74/236/5 90/232/5 91/230/5
f 73/237/5 89/21/5 90/232/5
f 158/240/115 25/164/115 255/163/115
f 255/163/116 164/238/116 158/240/116
f 135/170/32 75/242/32 76/241/32
f 134/171/32 74/243/32 75/242/32
f 133/18/32 73/17/32 74/243/32
f 269/246/37 21/215/37 157/281/37
f 157/281/37 161/244/37 269/246/37
f 103/221/5 83/248/5 84/247/5
f 102/222/5 82/250/5 83/248/5
f 102/222/5 101/15/5 81/249/5
f 271/253/35 9/188/35 178/293/35
f 178/293/35 174/251/35 271/253/35
f 190/254/36 187/294/36 88/255/36
f 118/196/3 86/257/3 87/256/3
f 118/196/3 117/7/3 85/9/3
f 179/260/117 33/140/117 251/355/117
f 251/355/118 184/258/118 179/260/118
f 77/358/28 152/143/28 186/262/28
f 152/143/28 151/146/28 186/262/28
f 150/147/28 79/263/28 78/261/28
f 149/6/28 80/5/28 79/263/28
f 193/264/40 209/300/40 63/265/40
f 63/265/119 209/300/119 203/267/119
f 59/268/42 203/267/42 196/269/42
f 199/270/40 212/272/40 71/271/40
f 212/272/41 206/309/41 67/273/41
f 67/273/42 206/309/42 202/274/42
f 166/223/43 96/226/43 100/219/43
f 163/10/44 155/34/44 22/276/44
f 162/278/120 270/368/120 269/279/120
f 159/228/43 92/231/43 96/226/43
f 161/244/43 157/281/43 104/218/43
f 156/214/43 100/219/43 104/218/43
f 261/27/44 268/365/44 24/282/44
f 160/32/44 165/29/44 24/282/44
f 164/284/43 76/235/43 92/231/43
f 160/32/44 23/283/44 22/276/44
f 172/285/46 41/31/46 45/30/46
f 170/89/46 169/101/46 45/30/46
f 171/124/121 170/89/121 49/33/121
f 167/286/122 262/362/122 276/11/122
f 264/110/46 266/28/46 41/31/46
f 265/120/123 275/122/123 33/288/123
f 267/290/50 259/106/50 44/99/50
f 184/291/51 77/211/51 108/206/51
f 174/251/51 178/293/51 120/191/51
f 176/187/51 182/197/51 112/200/51
f 181/292/52 52/86/52 56/85/52
f 180/91/50 48/94/50 52/86/50
f 182/197/51 173/203/51 108/206/51
f 178/293/51 176/187/51 116/192/51
f 177/96/50 44/99/50 48/94/50
f 190/254/53 119/194/53 87/256/53
f 186/210/53 78/213/53 107/208/53
f 188/205/53 107/208/53 111/202/53
f 189/199/53 111/202/53 115/195/53
f 185/190/53 115/195/53 119/194/53
f 203/267/42 204/296/42 195/295/42
f 204/296/42 205/298/42 194/297/42
f 209/300/124 210/301/124 204/296/124
f 210/301/56 211/302/56 205/298/56
f 212/272/40 199/270/40 198/303/40
f 213/304/40 198/303/40 197/305/40
f 212/272/59 213/304/59 207/308/59
f 213/304/125 214/306/125 208/310/125
f 196/269/62 195/295/62 192/311/62
f 195/295/63 194/297/63 191/312/63
f 209/300/40 193/264/40 192/313/40
f 210/301/40 192/313/40 191/314/40
f 206/309/42 207/308/42 201/315/42
f 207/308/42 208/310/42 200/316/42
f 202/55/62 201/317/62 198/303/62
f 201/317/63 200/318/63 197/305/63
f 220/74/66 216/77/66 60/66/66
f 230/115/67 37/379/67 38/319/67
f 216/77/66 218/76/66 59/71/66
f 37/379/67 230/115/67 250/320/67
f 230/115/126 224/112/126 5/321/126
f 218/76/66 221/79/66 58/72/66
f 223/44/127 245/352/127 243/46/127
f 244/322/70 247/346/70 32/323/70
f 223/44/66 57/48/66 58/72/66
f 7/325/128 219/369/128 235/4/128
f 235/4/72 32/333/72 247/324/72
f 215/117/67 38/319/67 39/326/67
f 222/119/67 39/326/67 40/327/67
f 236/16/67 40/327/67 1/328/67
f 233/126/72 3/380/72 29/330/72
f 237/129/72 29/330/72 30/331/72
f 225/131/72 30/331/72 31/332/72
f 238/133/72 31/332/72 32/333/72
f 228/136/70 29/335/70 3/334/70
f 231/137/70 30/336/70 29/335/70
f 232/138/70 31/337/70 30/336/70
f 234/2/70 32/323/70 31/337/70
f 239/38/73 17/381/73 18/338/73
f 5/341/129 224/8/129 241/339/129
f 241/339/130 20/343/130 217/340/130
f 240/40/73 18/338/73 19/342/73
f 242/42/73 19/342/73 20/343/73
f 17/381/131 239/38/131 227/344/131
f 239/38/132 219/35/132 7/345/132
f 247/346/133 244/322/133 227/347/133
f 246/49/77 19/354/77 18/349/77
f 249/51/77 18/349/77 17/350/77
f 244/322/134 248/1/134 17/350/134
f 250/43/135 5/382/135 217/351/135
f 245/352/136 217/351/136 20/353/136
f 243/46/77 20/353/77 19/354/77
f 255/163/137 253/357/137 132/168/137
f 252/157/138 140/155/138 144/151/138
f 257/139/83 148/144/83 152/143/83
f 174/356/139 88/376/139 124/181/139
f 164/238/140 255/163/140 136/167/140
f 258/172/86 128/176/86 132/168/86
f 184/258/141 251/355/141 152/143/141
f 254/148/83 144/151/83 148/144/83
f 161/359/142 84/160/142 140/155/142
f 256/178/86 124/181/86 128/176/86
f 272/121/143 265/120/143 179/289/143
f 275/122/90 273/123/90 34/361/90
f 262/362/144 171/124/144 53/12/144
f 274/125/90 35/364/90 34/361/90
f 266/28/145 264/110/145 168/363/145
f 274/125/146 262/362/146 167/286/146
f 275/122/147 265/120/147 183/82/147
f 267/290/17 177/96/17 9/97/17
f 264/110/19 172/285/19 42/100/19
f 260/109/18 263/111/18 42/100/18
f 267/290/148 175/102/148 28/107/148
f 261/27/8 165/29/8 41/31/8
f 268/365/149 261/27/149 158/366/149
f 259/106/18 260/109/18 43/98/18
f 270/368/44 163/10/44 21/277/44
f 270/368/150 162/278/150 36/287/150
